<svg xmlns="http://www.w3.org/2000/svg" viewBox="0 0 16 16"><title>bold</title><g id="aligns"><path d="M3.5,1.5v13H8a4.92,4.92,0,0,0,3.26-1,3.39,3.39,0,0,0,1.2-2.77,3.52,3.52,0,0,0-.51-2,2.66,2.66,0,0,0-1.67-1V7.6a2,2,0,0,0,1.36-.9,3.31,3.31,0,0,0,.51-1.91A2.79,2.79,0,0,0,11,2.29,6.78,6.78,0,0,0,7.28,1.5ZM6.07,6.65V3.76H7.43A3.16,3.16,0,0,1,9,4.08a1.18,1.18,0,0,1,.51,1.07A1.34,1.34,0,0,1,9.08,6.3a2.58,2.58,0,0,1-1.51.35Zm0,2.19h1.6c1.44,0,2.16.53,2.16,1.61a1.67,1.67,0,0,1-.51,1.34,2.37,2.37,0,0,1-1.57.43H6.07Z"/></g></svg>