<?xml version="1.0" standalone="no"?>
<!DOCTYPE svg PUBLIC "-//W3C//DTD SVG 1.1//EN" "http://www.w3.org/Graphics/SVG/1.1/DTD/svg11.dtd" >
<svg xmlns="http://www.w3.org/2000/svg">
<metadata>
<json>
<![CDATA[
{
	"fontFamily": "EverestForms",
	"majorVersion": 1,
	"minorVersion": 2,
	"licenseURL": "http://scripts.sil.org/cms/scripts/page.php?site_id=nrsi&id=OFL",
	"license": "SIL OFL",
	"designer": "Nilan Bhasima",
	"designerURL": "https://wpeverest.com",
	"copyright": "2018",
	"description": "Iconfont for Everest Form\nFont generated by IcoMoon.",
	"fontURL": "https://wpeverest.com/wordpress-plugins/everest-forms/",
	"version": "Version 1.2",
	"fontId": "EverestForms",
	"psName": "EverestForms",
	"subFamily": "Regular",
	"fullName": "EverestForms"
}
]]>
</json>
</metadata>
<defs>
<font id="EverestForms" horiz-adv-x="1024">
<font-face units-per-em="1024" ascent="960" descent="-64" />
<missing-glyph horiz-adv-x="1024" />
<glyph unicode="&#x20;" horiz-adv-x="512" d="" />
<glyph unicode="&#xe001;" glyph-name="general" data-tags="general" d="M1024-64h-1024v1024h1024zM32-32h960v960h-960zM320 336c0 0.005 0 0.011 0 0.016 0 38.519-27.223 70.68-63.479 78.292l-0.521 0.092v289.6h-32v-289.6c-39.061-5.723-68.715-38.998-68.715-79.2s29.653-73.477 68.28-79.148l0.434-0.052v-64h32v64c36.785 7.697 64.016 39.862 64.016 78.387 0 0.567-0.006 1.133-0.018 1.697l0.001-0.084zM240 288c-26.51 0-48 21.49-48 48s21.49 48 48 48c26.51 0 48-21.49 48-48v0c0-26.51-21.49-48-48-48v0zM608 560c0 0.005 0 0.011 0 0.016 0 38.519-27.223 70.68-63.479 78.292l-0.521 0.092v65.6h-32v-65.6c-39.061-5.723-68.715-38.998-68.715-79.2s29.653-73.477 68.28-79.148l0.434-0.052v-288h32v288c36.785 7.697 64.016 39.862 64.016 78.387 0 0.567-0.006 1.133-0.018 1.697l0.001-0.084zM528 512c-26.51 0-48 21.49-48 48s21.49 48 48 48c26.51 0 48-21.49 48-48v0c0-26.51-21.49-48-48-48v0zM896 336c0 0.005 0 0.011 0 0.016 0 38.519-27.223 70.68-63.479 78.292l-0.521 0.092v289.6h-32v-289.6c-39.061-5.723-68.715-38.998-68.715-79.2s29.653-73.477 68.28-79.148l0.434-0.052v-64h32v64c36.785 7.697 64.016 39.862 64.016 78.387 0 0.567-0.006 1.133-0.018 1.697l0.001-0.084zM816 288c-26.51 0-48 21.49-48 48s21.49 48 48 48c26.51 0 48-21.49 48-48v0c0-26.51-21.49-48-48-48v0z" />
<glyph unicode="&#xe002;" glyph-name="setting" data-tags="setting" d="M377.479 336.227l617.306 617.306 22.863-22.863-617.306-617.306-22.863 22.863zM137.094-64l-137.094 137.417 343.058 342.734 137.094-137.094zM45.59 73.417l91.504-91.504 297.468 297.144-91.504 91.504zM231.507 507.332c-0.049 0-0.107 0-0.165 0-125.001 0-226.334 101.333-226.334 226.334 0 31.019 6.24 60.581 17.533 87.499l-0.555-1.492 10.347 22.633 129.334-131.597 92.474 91.504-131.274 131.274 22.31 9.377c25.532 10.838 55.226 17.137 86.392 17.137 125.001 0 226.334-101.333 226.334-226.334s-101.333-226.334-226.334-226.334c-0.022 0-0.043 0-0.065 0h0.003zM43.973 783.783c-4.209-15.080-6.628-32.397-6.628-50.278 0-107.144 86.857-194.001 194.001-194.001s194.001 86.857 194.001 194.001c0 107.144-86.857 194.001-194.001 194.001-17.882 0-35.199-2.419-51.641-6.949l1.362 0.32 118.987-118.664-138.387-137.094zM368.711 573.293l22.863 22.863 434.401-434.401-22.863-22.863-434.401 434.401zM894.343-58.827c-71.385 0.058-129.232 57.94-129.232 129.334 0 71.429 57.905 129.334 129.334 129.334s129.334-57.905 129.334-129.334c0-35.74-14.497-68.094-37.931-91.503l-0.001-0.001c-23.4-23.374-55.713-37.83-91.402-37.83-0.036 0-0.071 0-0.107 0h0.005zM894.343 167.507c-0.025 0-0.055 0-0.085 0-53.572 0-97-43.429-97-97s43.429-97 97-97c53.572 0 97 43.429 97 97 0 26.765-10.84 50.998-28.369 68.548l0.001-0.001c-17.538 17.559-41.771 28.429-68.542 28.453h-0.005z" />
<glyph unicode="&#xe003;" glyph-name="lock" data-tags="lock" horiz-adv-x="896" d="M816-64h-736c-44.183 0-80 35.817-80 80v0 544c0 44.183 35.817 80 80 80v0h736c44.183 0 80-35.817 80-80v0-544c0-44.183-35.817-80-80-80v0zM80 608c-26.51 0-48-21.49-48-48v0-544c0-26.51 21.49-48 48-48v0h736c26.51 0 48 21.49 48 48v0 544c0 26.51-21.49 48-48 48v0zM704 608h-512v96c0 141.385 114.615 256 256 256s256-114.615 256-256v0zM224 640h448v64c0 123.712-100.288 224-224 224s-224-100.288-224-224v0zM448 256c-53.019 0-96 42.981-96 96s42.981 96 96 96c53.019 0 96-42.981 96-96v0c0-53.019-42.981-96-96-96v0zM448 416c-35.346 0-64-28.654-64-64s28.654-64 64-64c35.346 0 64 28.654 64 64v0c0 35.346-28.654 64-64 64v0zM432 288h32v-160h-32v160z" />
<glyph unicode="&#xe004;" glyph-name="password" data-tags="password" horiz-adv-x="896" d="M816-64h-736c-44.183 0-80 35.817-80 80v0 544c0 44.183 35.817 80 80 80v0h736c44.183 0 80-35.817 80-80v0-544c0-44.183-35.817-80-80-80v0zM80 608c-26.51 0-48-21.49-48-48v0-544c0-26.51 21.49-48 48-48v0h736c26.51 0 48 21.49 48 48v0 544c0 26.51-21.49 48-48 48v0zM704 608h-512v96c0 141.385 114.615 256 256 256s256-114.615 256-256v0zM224 640h448v64c0 123.712-100.288 224-224 224s-224-100.288-224-224v0zM256 256c-17.673 0-32 14.327-32 32s14.327 32 32 32c17.673 0 32-14.327 32-32v0c0-17.673-14.327-32-32-32v0zM512 256c-17.673 0-32 14.327-32 32s14.327 32 32 32c17.673 0 32-14.327 32-32v0c0-17.673-14.327-32-32-32v0zM384 256c-17.673 0-32 14.327-32 32s14.327 32 32 32c17.673 0 32-14.327 32-32v0c0-17.673-14.327-32-32-32v0zM640 256c-17.673 0-32 14.327-32 32s14.327 32 32 32c17.673 0 32-14.327 32-32v0c0-17.673-14.327-32-32-32v0z" />
<glyph unicode="&#xe005;" glyph-name="email" data-tags="email" horiz-adv-x="1020" d="M774.437 81.908l-774.437 505.398 1020.369 372.694zM73.284 577.073l681.676-442.347 216.222 772.456zM352.227-64v443.667l615.985 549.632 22.117-24.758-605.091-539.729v-348.596l206.649 208.629 23.438-23.108-263.097-265.738z" />
<glyph unicode="&#xe006;" glyph-name="email-envelope" data-tags="email-envelope" d="M896 0h-896v608h497.92v-32h-465.92v-544h832v370.24h32v-402.24zM448 219.52l-442.24 360 20.48 24.96 421.76-344 179.84 146.88 20.16-24.96-200-162.88zM752 352c-150.221 0-272 121.779-272 272s121.779 272 272 272c150.221 0 272-121.779 272-272v0c-0.182-150.148-121.852-271.818-271.982-272h-0.018zM752 864c-132.548 0-240-107.452-240-240s107.452-240 240-240c132.548 0 240 107.452 240 240v0c0 132.548-107.452 240-240 240v0zM826.56 468.48c-23.569-12.944-51.648-20.559-81.505-20.559-1.834 0-3.661 0.029-5.481 0.086l0.266-0.007c-82.004 0.694-148.214 67.333-148.214 149.435 0 3.718 0.136 7.404 0.403 11.053l-0.029-0.488c0 105.6 69.76 197.12 177.92 197.12 0.944 0.023 2.056 0.036 3.171 0.036 76.878 0 139.2-62.322 139.2-139.2 0-3.165-0.106-6.306-0.314-9.418l0.023 0.422c0-77.12-40.96-122.24-86.72-122.24-19.52 0-37.76 14.080-36.16 45.12h-1.92c-12.263-26.436-38.349-44.561-68.728-45.119l-0.072-0.001c-29.836 2.188-53.213 26.932-53.213 57.135 0 2.419 0.15 4.804 0.441 7.144l-0.028-0.28c-0.028 0.966-0.044 2.102-0.044 3.242 0 64.458 51.369 116.917 115.402 118.675l0.162 0.004c0.405 0.005 0.884 0.007 1.363 0.007 18.511 0 36.086-4.010 51.902-11.208l-0.786 0.32-16.64-92.8c-7.36-39.040-1.6-57.28 14.72-57.6 24.64 0 52.48 34.24 52.48 93.76 0 74.56-42.24 128-118.080 128s-146.24-65.6-146.24-169.92c0-85.76 53.12-138.56 125.44-138.56 1.031-0.026 2.245-0.041 3.463-0.041 25.724 0 49.894 6.656 70.88 18.341l-0.743-0.38zM800 690.24c-7.129 2.435-15.341 3.841-23.882 3.841-0.154 0-0.308 0-0.462-0.001h0.024c-43.985-4.586-77.982-41.462-77.982-86.279 0-2.182 0.081-4.346 0.239-6.487l-0.017 0.286c0-22.72 10.56-39.040 32-39.040 28.48 0 54.4 38.080 59.52 69.76zM517.852 291.765l20.264 24.766 351.931-287.95-20.264-24.766-351.931 287.95zM5.641 28.284l352.132 287.704 20.247-24.781-352.132-287.704-20.247 24.781z" />
<glyph unicode="&#xe007;" glyph-name="map-marker" data-tags="map-marker" d="M512-71.597l-11.892 12.883c-15.855 16.516-384.495 408.279-384.495 622.328 0 218.919 177.469 396.387 396.387 396.387s396.387-177.469 396.387-396.387v0c0-214.049-368.64-605.812-384.495-622.328zM512 926.968c-200.675 0-363.355-162.68-363.355-363.355v0c0-180.356 299.272-516.625 363.355-586.653 64.083 70.028 363.355 406.297 363.355 586.653 0 200.675-162.68 363.355-363.355 363.355v0zM512 332.387c-127.702 0-231.226 103.523-231.226 231.226s103.523 231.226 231.226 231.226c127.702 0 231.226-103.523 231.226-231.226v0c0-127.702-103.523-231.226-231.226-231.226v0zM512 761.806c-109.459 0-198.194-88.734-198.194-198.194s88.734-198.194 198.194-198.194c109.459 0 198.194 88.734 198.194 198.194v0c0 109.459-88.734 198.194-198.194 198.194v0z" />
<glyph unicode="&#xe008;" glyph-name="map-marker-city" data-tags="map-marker-city" d="M856.857 391.185l-29.399 14.534c5.615 11.231 10.901 22.462 15.525 33.032l30.39-13.213c-4.955-11.231-10.57-22.792-16.516-34.354zM873.373 425.868l-30.39 13.213c4.955 10.901 9.249 21.801 13.213 33.032l31.050-11.231c-4.294-11.892-8.919-23.453-13.874-35.014zM578.065 398.452h-33.032v297.29h165.161v-165.161h162.188c1.866 9.918 2.947 21.34 2.973 33.010v0.023c0 200.675-162.68 363.355-363.355 363.355s-363.355-162.68-363.355-363.355v0c2.79-45.938 14.681-88.49 33.885-126.737l-0.853 1.875-30.059-13.543c-20.22 40.342-33.208 87.548-35.964 137.482l-0.041 0.923c0 218.919 177.469 396.387 396.387 396.387s396.387-177.469 396.387-396.387v0c-0.182-18.472-2.339-36.343-6.269-53.539l0.323 1.679-2.973-12.883-222.307-1.321v165.161h-99.097zM512-71.597l-11.892 12.883c-2.312 2.312-218.343 231.226-324.377 433.053l-12.883 24.114h117.925v165.161h90.839l99.097-132.129h90.839v-33.032h-107.355l-99.097 132.129h-41.29v-165.161h-95.794c90.111-146.413 187.134-273.485 295.385-389.981l-1.398 1.522c48.227 52.521 228.253 254.679 315.458 429.419l29.399-14.534c-102.73-205.791-323.386-439.99-332.965-449.899z" />
<glyph unicode="&#xe009;" glyph-name="zip-code" data-tags="zip-code" horiz-adv-x="1018" d="M508.82 316.025l-11.448 12.084c-9.858 10.494-236.283 251.23-236.283 384.159 0 136.818 110.913 247.732 247.732 247.732s247.732-110.913 247.732-247.732v0c0-132.929-226.425-373.665-236.283-384.159zM508.82 928.199c-119.182-0.181-215.75-96.748-215.93-215.913v-0.017c0-104.308 169.501-298.614 215.93-349.814 46.43 50.882 215.93 245.188 215.93 349.814-0.181 119.182-96.748 215.75-215.913 215.93h-0.017zM508.82 616.865c-52.69 0-95.404 42.714-95.404 95.404s42.714 95.404 95.404 95.404c52.69 0 95.404-42.714 95.404-95.404v0c0-52.69-42.714-95.404-95.404-95.404v0zM508.82 775.871c-35.127 0-63.602-28.476-63.602-63.602s28.476-63.602 63.602-63.602c35.127 0 63.602 28.476 63.602 63.602v0c0 35.127-28.476 63.602-63.602 63.602v0zM1017.64-64l-412.462 131.975-286.847-127.523-318.33 134.201v765.774l285.893-120.209-12.084-29.575-242.007 102.082v-697.083l285.893-120.527 285.575 126.887 382.569-122.435v698.037l-249.958 79.503 9.54 30.529 272.219-86.499v-765.138zM286.211 625.769h31.801v-651.925h-31.801v651.925zM604.224 466.763h31.801v-397.516h-31.801v397.516z" />
<glyph unicode="&#xe00a;" glyph-name="flag" data-tags="flag" horiz-adv-x="768" d="M576 480h-576v480h576zM32 512h512v416h-512zM768 384h-480v112h32v-80h416v384h-176v32h208v-448zM0 496h32v-560h-32v560z" />
<glyph unicode="&#xe00b;" glyph-name="fields" data-tags="fields" d="M768-64h-768v1024h502.72l265.28-265.28v-102.72h-32v89.28l-246.72 246.72h-457.28v-960h704v112h32v-144zM752 672h-272v272h32v-240h240v-32zM1024 64h-832v544h832zM224 96h768v480h-768zM480 480h224v-32h-224v32zM480 224h224v-32h-224v32zM576 464h32v-256h-32v256z" />
<glyph unicode="&#xe00c;" glyph-name="clip-copy" data-tags="clip-copy" horiz-adv-x="896" d="M128 384h256v-64h-256v64zM128 192h160v-64h-160v64zM672 768h-128v32c0 88.366-71.634 160-160 160s-160-71.634-160-160v0-32h-128c-53.019 0-96-42.981-96-96v0-640c0-53.019 42.981-96 96-96v0h576c53.019 0 96 42.981 96 96v0 160h-64v-160c0-17.673-14.327-32-32-32v0h-576c-17.673 0-32 14.327-32 32v0 480h640v-128h64v288c0 53.019-42.981 96-96 96v0zM288 800c0 53.019 42.981 96 96 96s96-42.981 96-96v0-32h-192zM64 576v96c0 17.673 14.327 32 32 32v0h576c17.673 0 32-14.327 32-32v0-96zM572.16 256h323.84v64h-323.84l58.56 58.56-45.44 45.12-135.68-135.68 135.68-135.68 45.44 45.12-58.56 58.56z" />
<glyph unicode="&#xe00d;" glyph-name="Asset-290" data-tags="Asset 290" d="M511.757 672c0 88.366-71.635 160-160 160s-160-71.635-160-160c0-88.366 71.635-160 160-160v0c88.366 0 160 71.635 160 160v0zM351.756 544c-70.693 0-128 57.308-128 128s57.308 128 128 128c70.693 0 128-57.308 128-128v0c0-70.693-57.308-128-128-128v0zM1023.756 800v32h-352v-526.080c-56.977 122.192-178.776 205.359-320.001 205.359-194.151 0-351.59-157.185-351.999-351.24v-96.039h704v448h192v32h-192v256zM671.756 96h-640v64c0 176.731 143.269 320 320 320s320-143.269 320-320v0z" />
<glyph unicode="&#xe00e;" glyph-name="last-name" data-tags="last-name" d="M512.030 672c0 88.366-71.635 159.999-159.999 159.999s-159.999-71.635-159.999-159.999c0-88.366 71.635-159.999 159.999-159.999v0c88.366 0 159.999 71.635 159.999 159.999v0zM352.030 544c-70.693 0-128 57.307-128 128s57.307 128 128 128c70.693 0 128-57.307 128-128v0c0-70.693-57.307-128-128-128v0zM1024.028 64v32h-320v735.998h-32v-526.078c-56.976 122.191-178.775 205.359-320.001 205.359-194.151 0-351.589-157.185-351.999-351.24v-96.039h1023.998zM672.029 96h-639.998v64c0 176.73 143.268 320 320 320s320-143.268 320-320v0z" />
<glyph unicode="&#xe00f;" glyph-name="text" data-tags="text" d="M496 960h32v-1024h-32v1024zM0 960h1024v-32h-1024v32zM0 960h32v-288h-32v288zM256-32h512v-32h-512v32zM992 960h32v-288h-32v288z" />
<glyph unicode="&#xe010;" glyph-name="paragraph" data-tags="paragraph" horiz-adv-x="512" d="M480 960h32v-1024h-32v1024zM384 960h32v-1024h-32v1024zM240 480c-132.548 0-240 107.452-240 240s107.452 240 240 240v0c0.213 0.001 0.466 0.001 0.719 0.001 66.034 0 125.78-26.92 168.864-70.384l0.017-0.017-22.4-22.4c-37.707 38.045-89.979 61.6-147.753 61.6-114.875 0-208-93.125-208-208s93.125-208 208-208c57.774 0 110.047 23.555 147.738 61.585l0.015 0.015 23.040-22.4c-43.254-44.297-103.515-71.822-170.206-72h-0.034z" />
<glyph unicode="&#xe011;" glyph-name="dropdown" data-tags="dropdown" d="M1024-64h-1024v1024h1024zM32-32h960v960h-960zM512 317.44l-227.2 227.2 22.72 22.4 204.48-204.16 204.48 204.16 22.72-22.4-227.2-227.2z" />
<glyph unicode="&#xe012;" glyph-name="checkbox" data-tags="checkbox" d="M896 0h-896v896h896v-160h-32v128h-832v-832h832v448h32v-480zM364.8 250.24l-137.28 171.84 24.96 19.84 118.72-148.16 627.52 439.36 18.56-26.24-652.48-456.64z" />
<glyph unicode="&#xe013;" glyph-name="multiple-choices" data-tags="multiple-choices" d="M288 672h-288v288h288zM32 704h224v224h-224zM416 832h608v-32h-608v32zM288 320h-288v288h288zM32 352h224v224h-224zM416 480h608v-32h-608v32zM288-64h-288v288h288zM32-32h224v224h-224zM416 96h608v-32h-608v32z" />
<glyph unicode="&#xe014;" glyph-name="multiple-choices-radio" data-tags="multiple-choices-radio" d="M112 736c-61.856 0-112 50.144-112 112s50.144 112 112 112c61.856 0 112-50.144 112-112v0c0-61.856-50.144-112-112-112v0zM112 928c-44.183 0-80-35.817-80-80s35.817-80 80-80c44.183 0 80 35.817 80 80v0c0 44.183-35.817 80-80 80v0zM352 864h672v-32h-672v32zM112 352c-61.856 0-112 50.144-112 112s50.144 112 112 112c61.856 0 112-50.144 112-112v0c0-61.856-50.144-112-112-112v0zM112 544c-44.183 0-80-35.817-80-80s35.817-80 80-80c44.183 0 80 35.817 80 80v0c0 44.183-35.817 80-80 80v0zM112 432c-17.673 0-32 14.327-32 32s14.327 32 32 32c17.673 0 32-14.327 32-32v0c0-17.673-14.327-32-32-32v0zM352 480h672v-32h-672v32zM112-64c-61.856 0-112 50.144-112 112s50.144 112 112 112c61.856 0 112-50.144 112-112v0c0-61.856-50.144-112-112-112v0zM112 128c-44.183 0-80-35.817-80-80s35.817-80 80-80c44.183 0 80 35.817 80 80v0c0 44.183-35.817 80-80 80v0zM352 64h672v-32h-672v32z" />
<glyph unicode="&#xe015;" glyph-name="number" data-tags="number" d="M1024-64h-1024v1024h1024zM32-32h960v960h-960zM256 576h512v-32h-512v32zM256 352h512v-32h-512v32zM579.837 198.82l88.996 504.206 31.513-5.562-88.996-504.206-31.513 5.562zM341.278 198.609l88.996 504.206 31.513-5.562-88.996-504.206-31.513 5.562z" />
<glyph unicode="&#xe016;" glyph-name="website" data-tags="website" d="M532.8-57.6l-25.28 19.52c102.606 132.318 164.484 300.699 164.484 483.532 0 0.896-0.001 1.791-0.004 2.686v-0.139c0.002 0.728 0.004 1.59 0.004 2.452 0 183.018-62.003 351.554-166.149 485.75l1.345-1.802 25.6 19.2c106.794-137.526 171.205-312.6 171.205-502.718 0-1.013-0.002-2.026-0.005-3.039v0.157c0.003-0.791 0.004-1.728 0.004-2.665 0-190.188-64.409-365.333-172.604-504.811l1.4 1.876zM491.2-57.6c-106.795 137.602-171.204 312.747-171.204 502.935 0 0.937 0.002 1.874 0.005 2.811v-0.146c-0.003 0.856-0.005 1.869-0.005 2.882 0 190.118 64.411 365.192 172.602 504.589l-1.397-1.871 25.6-19.2c-102.775-133.201-164.728-302.486-164.728-486.24s61.953-353.039 166.11-488.105l-1.382 1.865zM512 640c-145.655 0.014-282.586 37.355-401.752 102.977l4.312-2.177 15.36 27.2c110.016-60.444 241.089-96.002 380.467-96.002 0.567 0 1.135 0.001 1.702 0.002h-0.088c0.479-0.001 1.046-0.002 1.613-0.002 139.378 0 270.451 35.558 384.642 98.096l-4.176-2.095 15.36-28.16c-114.436-62.862-250.773-99.842-395.747-99.842-0.595 0-1.191 0.001-1.786 0.002h0.093zM129.92 128l-15.36 28.16c114.694 63.459 251.466 100.805 396.96 100.805s282.265-37.346 401.251-102.974l-4.291 2.17-15.040-28.16c-110.3 61.041-241.835 96.964-381.76 96.964s-271.46-35.924-385.885-99.051l4.125 2.087zM496 944h32v-992h-32v992zM512-64c-282.77 0-512 229.23-512 512s229.23 512 512 512c282.77 0 512-229.23 512-512v0c0-282.77-229.23-512-512-512v0zM512 928c-265.097 0-480-214.903-480-480s214.903-480 480-480c265.097 0 480 214.903 480 480v0c0 265.097-214.903 480-480 480v0zM0 464h1024v-32h-1024v32z" />
<glyph unicode="&#xe017;" glyph-name="calendar" data-tags="calendar" horiz-adv-x="1026" d="M1025.603-65.603h-1025.603v897.402h1025.603zM32.050-33.552h961.502v833.302h-961.502zM256.401 960h32.050v-224.351h-32.050v224.351zM737.152 960h32.050v-224.351h-32.050v224.351zM16.025 607.449h993.552v-32.050h-993.552v32.050z" />
<glyph unicode="&#xe018;" glyph-name="single-item" data-tags="single-item" horiz-adv-x="768" d="M768-64h-768v1024h502.72l265.28-265.28zM32-32h704v713.28l-246.72 246.72h-457.28zM752 672h-272v272h32v-240h240v-32z" />
<glyph unicode="&#xe019;" glyph-name="file-upload" data-tags="file-upload" horiz-adv-x="769" d="M769.202-64h-769.202v769.202h288.451v-32.050h-256.401v-705.102h705.102v705.102h-255.119v32.050h287.169v-769.202zM368.576 929.552h32.050v-384.601h-32.050v384.601zM509.276 790.135l-124.675 124.675-124.675-124.675-22.756 22.435 147.43 147.43 147.43-147.43-22.756-22.435zM160.25 448.801h448.701v-32.050h-448.701v32.050zM160.25 288.551h256.401v-32.050h-256.401v32.050zM160.25 128.3h448.701v-32.050h-448.701v32.050z" />
<glyph unicode="&#xe01a;" glyph-name="hidden" data-tags="hidden" d="M511.839 189.82c-280.623 0-487.942 237.674-496.661 247.685l-9.042 10.657 9.042 10.334c8.719 10.334 216.038 248.008 496.661 248.008s489.234-237.674 496.661-248.008l9.042-10.334-9.042-10.657c-7.427-10.011-216.038-247.685-496.661-247.685zM49.408 448.161c43.595-46.178 229.601-226.049 462.431-226.049s419.804 179.87 462.431 226.049c-43.272 45.856-229.278 226.049-462.431 226.049s-418.836-180.193-462.431-226.049zM511.839 318.991c-71.339 0-129.171 57.832-129.171 129.171s57.832 129.171 129.171 129.171c71.339 0 129.171-57.832 129.171-129.171v0c0-71.339-57.832-129.171-129.171-129.171v0zM511.839 545.039c-53.504 0-96.878-43.374-96.878-96.878s43.374-96.878 96.878-96.878c53.504 0 96.878 43.374 96.878 96.878v0c0 53.504-43.374 96.878-96.878 96.878v0zM-0.26-40.95l1001.058 1001.058 22.834-22.834-1001.058-1001.058-22.834 22.834z" />
<glyph unicode="&#xe01b;" glyph-name="phone" data-tags="phone" horiz-adv-x="768" d="M688-64h-608c-44.183 0-80 35.817-80 80v0 864c0 44.183 35.817 80 80 80v0h608c44.183 0 80-35.817 80-80v0-864c0-44.183-35.817-80-80-80v0zM80 928c-26.51 0-48-21.49-48-48v0-864c0-26.51 21.49-48 48-48v0h608c26.51 0 48 21.49 48 48v0 864c0 26.51-21.49 48-48 48v0zM320 128h128v-32h-128v32zM352 800h256v-32h-256v32zM160 800h128v-32h-128v32z" />
<glyph unicode="&#xe01c;" glyph-name="custom-html" data-tags="custom-html" d="M1024-64h-1024v1024h1024zM32-32h960v960h-960zM356.8 300.8l-147.2 147.2 147.2 147.2 22.4-22.72-124.48-124.48 124.48-124.48-22.4-22.72zM667.2 300.8l-22.4 22.72 124.48 124.48-124.48 124.48 22.4 22.72 147.2-147.2-147.2-147.2zM433.609 327.017l127.961 255.867 28.62-14.313-127.961-255.867-28.62 14.313z" />
<glyph unicode="&#xe01d;" glyph-name="section-devider" data-tags="section-devider" horiz-adv-x="1029" d="M0 463.915h1028.823v-32.151h-1028.823v32.151zM639.478 789.601l-125.066 125.066-125.066-125.066-22.827 22.505 147.893 147.893 147.893-147.893-22.827-22.505zM498.336 930.1h32.151v-321.507h-32.151v321.507zM514.411-64l-147.893 147.893 22.827 22.827 125.066-125.066 125.066 125.066 22.827-22.827-147.893-147.893zM498.336 287.407h32.151v-321.507h-32.151v321.507z" />
<glyph unicode="&#xe01e;" glyph-name="integration" data-tags="integration" d="M320 128c-176.731 0-320 143.269-320 320s143.269 320 320 320c176.731 0 320-143.269 320-320v0c0-176.731-143.269-320-320-320v0zM320 736c-159.058 0-288-128.942-288-288s128.942-288 288-288c159.058 0 288 128.942 288 288v0c0 159.058-128.942 288-288 288v0zM704 128c-176.731 0-320 143.269-320 320s143.269 320 320 320c176.731 0 320-143.269 320-320v0c0-176.731-143.269-320-320-320v0zM704 736c-159.058 0-288-128.942-288-288s128.942-288 288-288c159.058 0 288 128.942 288 288v0c0 159.058-128.942 288-288 288v0z" />
<glyph unicode="&#xe01f;" glyph-name="payment" data-tags="payment" d="M1024 64h-1024v768h1024zM32 96h960v704h-960zM416 480h-256v192h256zM192 512h192v128h-192zM160 352h320v-32h-320v32zM160 256h128v-32h-128v32zM416 256h64v-32h-64v32zM720 192c-44.183 0-80 35.817-80 80s35.817 80 80 80c44.183 0 80-35.817 80-80v0c0-44.183-35.817-80-80-80v0zM720 320c-26.51 0-48-21.49-48-48s21.49-48 48-48c26.51 0 48 21.49 48 48v0c0 26.51-21.49 48-48 48v0zM784 192c-44.183 0-80 35.817-80 80s35.817 80 80 80c44.183 0 80-35.817 80-80v0c0-44.183-35.817-80-80-80v0zM784 320c-26.51 0-48-21.49-48-48s21.49-48 48-48c26.51 0 48 21.49 48 48v0c0 26.51-21.49 48-48 48v0z" />
<glyph unicode="&#xe020;" glyph-name="total" data-tags="total" horiz-adv-x="777" d="M404.551 146.367c-53.623 0-97.092 43.47-97.092 97.092v0h32.364c-0.001-0.112-0.001-0.243-0.001-0.375 0-35.748 28.98-64.728 64.728-64.728s64.728 28.98 64.728 64.728c0 31.282-22.19 57.38-51.688 63.414l-0.417 0.071h-12.298c-8.863 0.658-16.947 1.807-24.849 3.449l1.224-0.213c-42.7 10.818-73.79 48.906-73.79 94.255 0 53.623 43.47 97.092 97.092 97.092s97.092-43.47 97.092-97.092c0-0.026 0-0.053 0-0.079v0.004h-32.364c0 35.748-28.98 64.728-64.728 64.728s-64.728-28.98-64.728-64.728v0c0.707-29.382 20.887-53.861 48.095-61.066l0.452-0.102c5.489-1.35 12.010-2.383 18.679-2.888l0.415-0.025h13.917c44.736-9.268 77.879-48.35 77.879-95.172 0-52.898-42.303-95.916-94.925-97.069l-0.107-0.002zM388.369 550.918h32.364v-453.097h-32.364v453.097zM388.369 648.010c-2.669-0.128-5.797-0.2-8.942-0.2-43.093 0-82.998 13.65-115.627 36.863l0.614-0.415-3.884 4.855c0 3.236-111.98 223.96-111.98 223.96-2.131 4.198-3.38 9.153-3.38 14.4 0 8.128 2.996 15.556 7.944 21.24l-0.033-0.039c5.971 6.941 14.765 11.309 24.579 11.309 3.593 0 7.050-0.586 10.279-1.666l-0.228 0.066 190.625-64.728c13.855-4.906 29.834-7.741 46.475-7.741 23.663 0 45.988 5.733 65.66 15.885l-0.802-0.376 90.619 45.31c4.234 2.175 9.237 3.449 14.539 3.449 8.996 0 17.135-3.671 23.001-9.596l0.003-0.003c5.864-5.858 9.491-13.954 9.491-22.896 0-5.216-1.234-10.145-3.426-14.509l0.085 0.186-111.332-220.076c-30.491-22.377-68.763-35.809-110.172-35.809-4.964 0-9.883 0.193-14.75 0.572l0.645-0.040zM287.070 707.56c26.205-17.177 58.311-27.397 92.805-27.397 2.988 0 5.958 0.077 8.908 0.228l-0.414-0.017c2.896-0.178 6.28-0.279 9.689-0.279 33.654 0 65 9.878 91.299 26.893l-0.659-0.399 106.154 212.632-90.619-45.633c-23.090-11.784-50.361-18.688-79.244-18.688-20.286 0-39.777 3.406-57.931 9.677l1.246-0.374-190.625 63.434c75.732-151.788 100.976-202.276 109.391-220.076zM695.828-64h-614.918c-0.194-0.002-0.424-0.003-0.653-0.003-43.988 0-79.711 35.385-80.257 79.243l-0.001 0.052v367.009c0.52 160.294 112.9 294.192 263.141 327.751l2.245 0.421 9.709 2.265 6.149-7.767c25.429-20.533 58.145-32.961 93.764-32.961 4.704 0 9.357 0.217 13.95 0.641l-0.589-0.044c4.004-0.38 8.657-0.597 13.361-0.597 35.619 0 68.336 12.428 94.050 33.184l-0.286-0.223 6.149 7.767 9.709-2.265c152.485-33.98 264.866-167.878 265.385-328.114v-367.067c-0.547-43.91-36.27-79.295-80.257-79.295-0.23 0-0.459 0.001-0.688 0.003h0.035zM263.767 677.138c-133.587-33.989-230.899-152.978-231.403-294.78v-367.066c0.364-26.353 21.813-47.576 48.218-47.576 0.115 0 0.231 0 0.346 0.001h614.9c0.097-0.001 0.213-0.001 0.328-0.001 26.405 0 47.854 21.223 48.218 47.542v367.043c-0.504 141.859-97.817 260.848-229.293 294.381l-2.11 0.456c-31.695-23.412-71.541-37.473-114.67-37.473-3.494 0-6.966 0.092-10.414 0.274l0.482-0.020c-2.966-0.162-6.439-0.254-9.932-0.254-43.129 0-82.974 14.060-115.201 37.848l0.532-0.375z" />
<glyph unicode="" glyph-name="total" data-tags="total" horiz-adv-x="777" d="M404.551 146.367c-53.623 0-97.092 43.47-97.092 97.092v0h32.364c-0.001-0.112-0.001-0.243-0.001-0.375 0-35.748 28.98-64.728 64.728-64.728s64.728 28.98 64.728 64.728c0 31.282-22.19 57.38-51.688 63.414l-0.417 0.071h-12.298c-8.863 0.658-16.947 1.807-24.849 3.449l1.224-0.213c-42.7 10.818-73.79 48.906-73.79 94.255 0 53.623 43.47 97.092 97.092 97.092s97.092-43.47 97.092-97.092c0-0.026 0-0.053 0-0.079v0.004h-32.364c0 35.748-28.98 64.728-64.728 64.728s-64.728-28.98-64.728-64.728v0c0.707-29.382 20.887-53.861 48.095-61.066l0.452-0.102c5.489-1.35 12.010-2.383 18.679-2.888l0.415-0.025h13.917c44.736-9.268 77.879-48.35 77.879-95.172 0-52.898-42.303-95.916-94.925-97.069l-0.107-0.002zM388.369 550.918h32.364v-453.097h-32.364v453.097zM388.369 648.010c-2.669-0.128-5.797-0.2-8.942-0.2-43.093 0-82.998 13.65-115.627 36.863l0.614-0.415-3.884 4.855c0 3.236-111.98 223.96-111.98 223.96-2.131 4.198-3.38 9.153-3.38 14.4 0 8.128 2.996 15.556 7.944 21.24l-0.033-0.039c5.971 6.941 14.765 11.309 24.579 11.309 3.593 0 7.050-0.586 10.279-1.666l-0.228 0.066 190.625-64.728c13.855-4.906 29.834-7.741 46.475-7.741 23.663 0 45.988 5.733 65.66 15.885l-0.802-0.376 90.619 45.31c4.234 2.175 9.237 3.449 14.539 3.449 8.996 0 17.135-3.671 23.001-9.596l0.003-0.003c5.864-5.858 9.491-13.954 9.491-22.896 0-5.216-1.234-10.145-3.426-14.509l0.085 0.186-111.332-220.076c-30.491-22.377-68.763-35.809-110.172-35.809-4.964 0-9.883 0.193-14.75 0.572l0.645-0.040zM287.070 707.56c26.205-17.177 58.311-27.397 92.805-27.397 2.988 0 5.958 0.077 8.908 0.228l-0.414-0.017c2.896-0.178 6.28-0.279 9.689-0.279 33.654 0 65 9.878 91.299 26.893l-0.659-0.399 106.154 212.632-90.619-45.633c-23.090-11.784-50.361-18.688-79.244-18.688-20.286 0-39.777 3.406-57.931 9.677l1.246-0.374-190.625 63.434c75.732-151.788 100.976-202.276 109.391-220.076zM695.828-64h-614.918c-0.194-0.002-0.424-0.003-0.653-0.003-43.988 0-79.711 35.385-80.257 79.243l-0.001 0.052v367.009c0.52 160.294 112.9 294.192 263.141 327.751l2.245 0.421 9.709 2.265 6.149-7.767c25.429-20.533 58.145-32.961 93.764-32.961 4.704 0 9.357 0.217 13.95 0.641l-0.589-0.044c4.004-0.38 8.657-0.597 13.361-0.597 35.619 0 68.336 12.428 94.050 33.184l-0.286-0.223 6.149 7.767 9.709-2.265c152.485-33.98 264.866-167.878 265.385-328.114v-367.067c-0.547-43.91-36.27-79.295-80.257-79.295-0.23 0-0.459 0.001-0.688 0.003h0.035zM263.767 677.138c-133.587-33.989-230.899-152.978-231.403-294.78v-367.066c0.364-26.353 21.813-47.576 48.218-47.576 0.115 0 0.231 0 0.346 0.001h614.9c0.097-0.001 0.213-0.001 0.328-0.001 26.405 0 47.854 21.223 48.218 47.542v367.043c-0.504 141.859-97.817 260.848-229.293 294.381l-2.11 0.456c-31.695-23.412-71.541-37.473-114.67-37.473-3.494 0-6.966 0.092-10.414 0.274l0.482-0.020c-2.966-0.162-6.439-0.254-9.932-0.254-43.129 0-82.974 14.060-115.201 37.848l0.532-0.375z" />
<glyph unicode="zip-code" glyph-name="zip-code" data-tags="zip-code" horiz-adv-x="1018" d="M508.82 316.025l-11.448 12.084c-9.858 10.494-236.283 251.23-236.283 384.159 0 136.818 110.913 247.732 247.732 247.732s247.732-110.913 247.732-247.732v0c0-132.929-226.425-373.665-236.283-384.159zM508.82 928.199c-119.182-0.181-215.75-96.748-215.93-215.913v-0.017c0-104.308 169.501-298.614 215.93-349.814 46.43 50.882 215.93 245.188 215.93 349.814-0.181 119.182-96.748 215.75-215.913 215.93h-0.017zM508.82 616.865c-52.69 0-95.404 42.714-95.404 95.404s42.714 95.404 95.404 95.404c52.69 0 95.404-42.714 95.404-95.404v0c0-52.69-42.714-95.404-95.404-95.404v0zM508.82 775.871c-35.127 0-63.602-28.476-63.602-63.602s28.476-63.602 63.602-63.602c35.127 0 63.602 28.476 63.602 63.602v0c0 35.127-28.476 63.602-63.602 63.602v0zM1017.64-64l-412.462 131.975-286.847-127.523-318.33 134.201v765.774l285.893-120.209-12.084-29.575-242.007 102.082v-697.083l285.893-120.527 285.575 126.887 382.569-122.435v698.037l-249.958 79.503 9.54 30.529 272.219-86.499v-765.138zM286.211 625.769h31.801v-651.925h-31.801v651.925zM604.224 466.763h31.801v-397.516h-31.801v397.516z" />
<glyph unicode="website" glyph-name="website" data-tags="website" d="M532.8-57.6l-25.28 19.52c102.606 132.318 164.484 300.699 164.484 483.532 0 0.896-0.001 1.791-0.004 2.686v-0.139c0.002 0.728 0.004 1.59 0.004 2.452 0 183.018-62.003 351.554-166.149 485.75l1.345-1.802 25.6 19.2c106.794-137.526 171.205-312.6 171.205-502.718 0-1.013-0.002-2.026-0.005-3.039v0.157c0.003-0.791 0.004-1.728 0.004-2.665 0-190.188-64.409-365.333-172.604-504.811l1.4 1.876zM491.2-57.6c-106.795 137.602-171.204 312.747-171.204 502.935 0 0.937 0.002 1.874 0.005 2.811v-0.146c-0.003 0.856-0.005 1.869-0.005 2.882 0 190.118 64.411 365.192 172.602 504.589l-1.397-1.871 25.6-19.2c-102.775-133.201-164.728-302.486-164.728-486.24s61.953-353.039 166.11-488.105l-1.382 1.865zM512 640c-145.655 0.014-282.586 37.355-401.752 102.977l4.312-2.177 15.36 27.2c110.016-60.444 241.089-96.002 380.467-96.002 0.567 0 1.135 0.001 1.702 0.002h-0.088c0.479-0.001 1.046-0.002 1.613-0.002 139.378 0 270.451 35.558 384.642 98.096l-4.176-2.095 15.36-28.16c-114.436-62.862-250.773-99.842-395.747-99.842-0.595 0-1.191 0.001-1.786 0.002h0.093zM129.92 128l-15.36 28.16c114.694 63.459 251.466 100.805 396.96 100.805s282.265-37.346 401.251-102.974l-4.291 2.17-15.040-28.16c-110.3 61.041-241.835 96.964-381.76 96.964s-271.46-35.924-385.885-99.051l4.125 2.087zM496 944h32v-992h-32v992zM512-64c-282.77 0-512 229.23-512 512s229.23 512 512 512c282.77 0 512-229.23 512-512v0c0-282.77-229.23-512-512-512v0zM512 928c-265.097 0-480-214.903-480-480s214.903-480 480-480c265.097 0 480 214.903 480 480v0c0 265.097-214.903 480-480 480v0zM0 464h1024v-32h-1024v32z" />
<glyph unicode="total" glyph-name="total" data-tags="total" horiz-adv-x="777" d="M404.551 146.367c-53.623 0-97.092 43.47-97.092 97.092v0h32.364c-0.001-0.112-0.001-0.243-0.001-0.375 0-35.748 28.98-64.728 64.728-64.728s64.728 28.98 64.728 64.728c0 31.282-22.19 57.38-51.688 63.414l-0.417 0.071h-12.298c-8.863 0.658-16.947 1.807-24.849 3.449l1.224-0.213c-42.7 10.818-73.79 48.906-73.79 94.255 0 53.623 43.47 97.092 97.092 97.092s97.092-43.47 97.092-97.092c0-0.026 0-0.053 0-0.079v0.004h-32.364c0 35.748-28.98 64.728-64.728 64.728s-64.728-28.98-64.728-64.728v0c0.707-29.382 20.887-53.861 48.095-61.066l0.452-0.102c5.489-1.35 12.010-2.383 18.679-2.888l0.415-0.025h13.917c44.736-9.268 77.879-48.35 77.879-95.172 0-52.898-42.303-95.916-94.925-97.069l-0.107-0.002zM388.369 550.918h32.364v-453.097h-32.364v453.097zM388.369 648.010c-2.669-0.128-5.797-0.2-8.942-0.2-43.093 0-82.998 13.65-115.627 36.863l0.614-0.415-3.884 4.855c0 3.236-111.98 223.96-111.98 223.96-2.131 4.198-3.38 9.153-3.38 14.4 0 8.128 2.996 15.556 7.944 21.24l-0.033-0.039c5.971 6.941 14.765 11.309 24.579 11.309 3.593 0 7.050-0.586 10.279-1.666l-0.228 0.066 190.625-64.728c13.855-4.906 29.834-7.741 46.475-7.741 23.663 0 45.988 5.733 65.66 15.885l-0.802-0.376 90.619 45.31c4.234 2.175 9.237 3.449 14.539 3.449 8.996 0 17.135-3.671 23.001-9.596l0.003-0.003c5.864-5.858 9.491-13.954 9.491-22.896 0-5.216-1.234-10.145-3.426-14.509l0.085 0.186-111.332-220.076c-30.491-22.377-68.763-35.809-110.172-35.809-4.964 0-9.883 0.193-14.75 0.572l0.645-0.040zM287.070 707.56c26.205-17.177 58.311-27.397 92.805-27.397 2.988 0 5.958 0.077 8.908 0.228l-0.414-0.017c2.896-0.178 6.28-0.279 9.689-0.279 33.654 0 65 9.878 91.299 26.893l-0.659-0.399 106.154 212.632-90.619-45.633c-23.090-11.784-50.361-18.688-79.244-18.688-20.286 0-39.777 3.406-57.931 9.677l1.246-0.374-190.625 63.434c75.732-151.788 100.976-202.276 109.391-220.076zM695.828-64h-614.918c-0.194-0.002-0.424-0.003-0.653-0.003-43.988 0-79.711 35.385-80.257 79.243l-0.001 0.052v367.009c0.52 160.294 112.9 294.192 263.141 327.751l2.245 0.421 9.709 2.265 6.149-7.767c25.429-20.533 58.145-32.961 93.764-32.961 4.704 0 9.357 0.217 13.95 0.641l-0.589-0.044c4.004-0.38 8.657-0.597 13.361-0.597 35.619 0 68.336 12.428 94.050 33.184l-0.286-0.223 6.149 7.767 9.709-2.265c152.485-33.98 264.866-167.878 265.385-328.114v-367.067c-0.547-43.91-36.27-79.295-80.257-79.295-0.23 0-0.459 0.001-0.688 0.003h0.035zM263.767 677.138c-133.587-33.989-230.899-152.978-231.403-294.78v-367.066c0.364-26.353 21.813-47.576 48.218-47.576 0.115 0 0.231 0 0.346 0.001h614.9c0.097-0.001 0.213-0.001 0.328-0.001 26.405 0 47.854 21.223 48.218 47.542v367.043c-0.504 141.859-97.817 260.848-229.293 294.381l-2.11 0.456c-31.695-23.412-71.541-37.473-114.67-37.473-3.494 0-6.966 0.092-10.414 0.274l0.482-0.020c-2.966-0.162-6.439-0.254-9.932-0.254-43.129 0-82.974 14.060-115.201 37.848l0.532-0.375z" />
<glyph unicode="text" glyph-name="text" data-tags="text" d="M496 960h32v-1024h-32v1024zM0 960h1024v-32h-1024v32zM0 960h32v-288h-32v288zM256-32h512v-32h-512v32zM992 960h32v-288h-32v288z" />
<glyph unicode="single-item" glyph-name="single-item" data-tags="single-item" horiz-adv-x="768" d="M768-64h-768v1024h502.72l265.28-265.28zM32-32h704v713.28l-246.72 246.72h-457.28zM752 672h-272v272h32v-240h240v-32z" />
<glyph unicode="setting" glyph-name="setting" data-tags="setting" d="M377.479 336.227l617.306 617.306 22.863-22.863-617.306-617.306-22.863 22.863zM137.094-64l-137.094 137.417 343.058 342.734 137.094-137.094zM45.59 73.417l91.504-91.504 297.468 297.144-91.504 91.504zM231.507 507.332c-0.049 0-0.107 0-0.165 0-125.001 0-226.334 101.333-226.334 226.334 0 31.019 6.24 60.581 17.533 87.499l-0.555-1.492 10.347 22.633 129.334-131.597 92.474 91.504-131.274 131.274 22.31 9.377c25.532 10.838 55.226 17.137 86.392 17.137 125.001 0 226.334-101.333 226.334-226.334s-101.333-226.334-226.334-226.334c-0.022 0-0.043 0-0.065 0h0.003zM43.973 783.783c-4.209-15.080-6.628-32.397-6.628-50.278 0-107.144 86.857-194.001 194.001-194.001s194.001 86.857 194.001 194.001c0 107.144-86.857 194.001-194.001 194.001-17.882 0-35.199-2.419-51.641-6.949l1.362 0.32 118.987-118.664-138.387-137.094zM368.711 573.293l22.863 22.863 434.401-434.401-22.863-22.863-434.401 434.401zM894.343-58.827c-71.385 0.058-129.232 57.94-129.232 129.334 0 71.429 57.905 129.334 129.334 129.334s129.334-57.905 129.334-129.334c0-35.74-14.497-68.094-37.931-91.503l-0.001-0.001c-23.4-23.374-55.713-37.83-91.402-37.83-0.036 0-0.071 0-0.107 0h0.005zM894.343 167.507c-0.025 0-0.055 0-0.085 0-53.572 0-97-43.429-97-97s43.429-97 97-97c53.572 0 97 43.429 97 97 0 26.765-10.84 50.998-28.369 68.548l0.001-0.001c-17.538 17.559-41.771 28.429-68.542 28.453h-0.005z" />
<glyph unicode="section-devider" glyph-name="section-devider" data-tags="section-devider" horiz-adv-x="1029" d="M0 463.915h1028.823v-32.151h-1028.823v32.151zM639.478 789.601l-125.066 125.066-125.066-125.066-22.827 22.505 147.893 147.893 147.893-147.893-22.827-22.505zM498.336 930.1h32.151v-321.507h-32.151v321.507zM514.411-64l-147.893 147.893 22.827 22.827 125.066-125.066 125.066 125.066 22.827-22.827-147.893-147.893zM498.336 287.407h32.151v-321.507h-32.151v321.507z" />
<glyph unicode="phone" glyph-name="phone" data-tags="phone" horiz-adv-x="768" d="M688-64h-608c-44.183 0-80 35.817-80 80v0 864c0 44.183 35.817 80 80 80v0h608c44.183 0 80-35.817 80-80v0-864c0-44.183-35.817-80-80-80v0zM80 928c-26.51 0-48-21.49-48-48v0-864c0-26.51 21.49-48 48-48v0h608c26.51 0 48 21.49 48 48v0 864c0 26.51-21.49 48-48 48v0zM320 128h128v-32h-128v32zM352 800h256v-32h-256v32zM160 800h128v-32h-128v32z" />
<glyph unicode="payment" glyph-name="payment" data-tags="payment" d="M1024 64h-1024v768h1024zM32 96h960v704h-960zM416 480h-256v192h256zM192 512h192v128h-192zM160 352h320v-32h-320v32zM160 256h128v-32h-128v32zM416 256h64v-32h-64v32zM720 192c-44.183 0-80 35.817-80 80s35.817 80 80 80c44.183 0 80-35.817 80-80v0c0-44.183-35.817-80-80-80v0zM720 320c-26.51 0-48-21.49-48-48s21.49-48 48-48c26.51 0 48 21.49 48 48v0c0 26.51-21.49 48-48 48v0zM784 192c-44.183 0-80 35.817-80 80s35.817 80 80 80c44.183 0 80-35.817 80-80v0c0-44.183-35.817-80-80-80v0zM784 320c-26.51 0-48-21.49-48-48s21.49-48 48-48c26.51 0 48 21.49 48 48v0c0 26.51-21.49 48-48 48v0z" />
<glyph unicode="password" glyph-name="password" data-tags="password" horiz-adv-x="896" d="M816-64h-736c-44.183 0-80 35.817-80 80v0 544c0 44.183 35.817 80 80 80v0h736c44.183 0 80-35.817 80-80v0-544c0-44.183-35.817-80-80-80v0zM80 608c-26.51 0-48-21.49-48-48v0-544c0-26.51 21.49-48 48-48v0h736c26.51 0 48 21.49 48 48v0 544c0 26.51-21.49 48-48 48v0zM704 608h-512v96c0 141.385 114.615 256 256 256s256-114.615 256-256v0zM224 640h448v64c0 123.712-100.288 224-224 224s-224-100.288-224-224v0zM256 256c-17.673 0-32 14.327-32 32s14.327 32 32 32c17.673 0 32-14.327 32-32v0c0-17.673-14.327-32-32-32v0zM512 256c-17.673 0-32 14.327-32 32s14.327 32 32 32c17.673 0 32-14.327 32-32v0c0-17.673-14.327-32-32-32v0zM384 256c-17.673 0-32 14.327-32 32s14.327 32 32 32c17.673 0 32-14.327 32-32v0c0-17.673-14.327-32-32-32v0zM640 256c-17.673 0-32 14.327-32 32s14.327 32 32 32c17.673 0 32-14.327 32-32v0c0-17.673-14.327-32-32-32v0z" />
<glyph unicode="paragraph" glyph-name="paragraph" data-tags="paragraph" horiz-adv-x="512" d="M480 960h32v-1024h-32v1024zM384 960h32v-1024h-32v1024zM240 480c-132.548 0-240 107.452-240 240s107.452 240 240 240v0c0.213 0.001 0.466 0.001 0.719 0.001 66.034 0 125.78-26.92 168.864-70.384l0.017-0.017-22.4-22.4c-37.707 38.045-89.979 61.6-147.753 61.6-114.875 0-208-93.125-208-208s93.125-208 208-208c57.774 0 110.047 23.555 147.738 61.585l0.015 0.015 23.040-22.4c-43.254-44.297-103.515-71.822-170.206-72h-0.034z" />
<glyph unicode="number" glyph-name="number" data-tags="number" d="M1024-64h-1024v1024h1024zM32-32h960v960h-960zM256 576h512v-32h-512v32zM256 352h512v-32h-512v32zM579.837 198.82l88.996 504.206 31.513-5.562-88.996-504.206-31.513 5.562zM341.278 198.609l88.996 504.206 31.513-5.562-88.996-504.206-31.513 5.562z" />
<glyph unicode="multiple-choices-radio" glyph-name="multiple-choices-radio" data-tags="multiple-choices-radio" d="M112 736c-61.856 0-112 50.144-112 112s50.144 112 112 112c61.856 0 112-50.144 112-112v0c0-61.856-50.144-112-112-112v0zM112 928c-44.183 0-80-35.817-80-80s35.817-80 80-80c44.183 0 80 35.817 80 80v0c0 44.183-35.817 80-80 80v0zM352 864h672v-32h-672v32zM112 352c-61.856 0-112 50.144-112 112s50.144 112 112 112c61.856 0 112-50.144 112-112v0c0-61.856-50.144-112-112-112v0zM112 544c-44.183 0-80-35.817-80-80s35.817-80 80-80c44.183 0 80 35.817 80 80v0c0 44.183-35.817 80-80 80v0zM112 432c-17.673 0-32 14.327-32 32s14.327 32 32 32c17.673 0 32-14.327 32-32v0c0-17.673-14.327-32-32-32v0zM352 480h672v-32h-672v32zM112-64c-61.856 0-112 50.144-112 112s50.144 112 112 112c61.856 0 112-50.144 112-112v0c0-61.856-50.144-112-112-112v0zM112 128c-44.183 0-80-35.817-80-80s35.817-80 80-80c44.183 0 80 35.817 80 80v0c0 44.183-35.817 80-80 80v0zM352 64h672v-32h-672v32z" />
<glyph unicode="multiple-choices" glyph-name="multiple-choices" data-tags="multiple-choices" d="M288 672h-288v288h288zM32 704h224v224h-224zM416 832h608v-32h-608v32zM288 320h-288v288h288zM32 352h224v224h-224zM416 480h608v-32h-608v32zM288-64h-288v288h288zM32-32h224v224h-224zM416 96h608v-32h-608v32z" />
<glyph unicode="map-marker-city" glyph-name="map-marker-city" data-tags="map-marker-city" d="M856.857 391.185l-29.399 14.534c5.615 11.231 10.901 22.462 15.525 33.032l30.39-13.213c-4.955-11.231-10.57-22.792-16.516-34.354zM873.373 425.868l-30.39 13.213c4.955 10.901 9.249 21.801 13.213 33.032l31.050-11.231c-4.294-11.892-8.919-23.453-13.874-35.014zM578.065 398.452h-33.032v297.29h165.161v-165.161h162.188c1.866 9.918 2.947 21.34 2.973 33.010v0.023c0 200.675-162.68 363.355-363.355 363.355s-363.355-162.68-363.355-363.355v0c2.79-45.938 14.681-88.49 33.885-126.737l-0.853 1.875-30.059-13.543c-20.22 40.342-33.208 87.548-35.964 137.482l-0.041 0.923c0 218.919 177.469 396.387 396.387 396.387s396.387-177.469 396.387-396.387v0c-0.182-18.472-2.339-36.343-6.269-53.539l0.323 1.679-2.973-12.883-222.307-1.321v165.161h-99.097zM512-71.597l-11.892 12.883c-2.312 2.312-218.343 231.226-324.377 433.053l-12.883 24.114h117.925v165.161h90.839l99.097-132.129h90.839v-33.032h-107.355l-99.097 132.129h-41.29v-165.161h-95.794c90.111-146.413 187.134-273.485 295.385-389.981l-1.398 1.522c48.227 52.521 228.253 254.679 315.458 429.419l29.399-14.534c-102.73-205.791-323.386-439.99-332.965-449.899z" />
<glyph unicode="map-marker" glyph-name="map-marker" data-tags="map-marker" d="M512-71.597l-11.892 12.883c-15.855 16.516-384.495 408.279-384.495 622.328 0 218.919 177.469 396.387 396.387 396.387s396.387-177.469 396.387-396.387v0c0-214.049-368.64-605.812-384.495-622.328zM512 926.968c-200.675 0-363.355-162.68-363.355-363.355v0c0-180.356 299.272-516.625 363.355-586.653 64.083 70.028 363.355 406.297 363.355 586.653 0 200.675-162.68 363.355-363.355 363.355v0zM512 332.387c-127.702 0-231.226 103.523-231.226 231.226s103.523 231.226 231.226 231.226c127.702 0 231.226-103.523 231.226-231.226v0c0-127.702-103.523-231.226-231.226-231.226v0zM512 761.806c-109.459 0-198.194-88.734-198.194-198.194s88.734-198.194 198.194-198.194c109.459 0 198.194 88.734 198.194 198.194v0c0 109.459-88.734 198.194-198.194 198.194v0z" />
<glyph unicode="lock" glyph-name="lock" data-tags="lock" horiz-adv-x="896" d="M816-64h-736c-44.183 0-80 35.817-80 80v0 544c0 44.183 35.817 80 80 80v0h736c44.183 0 80-35.817 80-80v0-544c0-44.183-35.817-80-80-80v0zM80 608c-26.51 0-48-21.49-48-48v0-544c0-26.51 21.49-48 48-48v0h736c26.51 0 48 21.49 48 48v0 544c0 26.51-21.49 48-48 48v0zM704 608h-512v96c0 141.385 114.615 256 256 256s256-114.615 256-256v0zM224 640h448v64c0 123.712-100.288 224-224 224s-224-100.288-224-224v0zM448 256c-53.019 0-96 42.981-96 96s42.981 96 96 96c53.019 0 96-42.981 96-96v0c0-53.019-42.981-96-96-96v0zM448 416c-35.346 0-64-28.654-64-64s28.654-64 64-64c35.346 0 64 28.654 64 64v0c0 35.346-28.654 64-64 64v0zM432 288h32v-160h-32v160z" />
<glyph unicode="last-name" glyph-name="last-name" data-tags="last-name" d="M512.030 672c0 88.366-71.635 159.999-159.999 159.999s-159.999-71.635-159.999-159.999c0-88.366 71.635-159.999 159.999-159.999v0c88.366 0 159.999 71.635 159.999 159.999v0zM352.030 544c-70.693 0-128 57.307-128 128s57.307 128 128 128c70.693 0 128-57.307 128-128v0c0-70.693-57.307-128-128-128v0zM1024.028 64v32h-320v735.998h-32v-526.078c-56.976 122.191-178.775 205.359-320.001 205.359-194.151 0-351.589-157.185-351.999-351.24v-96.039h1023.998zM672.029 96h-639.998v64c0 176.73 143.268 320 320 320s320-143.268 320-320v0z" />
<glyph unicode="integration" glyph-name="integration" data-tags="integration" d="M320 128c-176.731 0-320 143.269-320 320s143.269 320 320 320c176.731 0 320-143.269 320-320v0c0-176.731-143.269-320-320-320v0zM320 736c-159.058 0-288-128.942-288-288s128.942-288 288-288c159.058 0 288 128.942 288 288v0c0 159.058-128.942 288-288 288v0zM704 128c-176.731 0-320 143.269-320 320s143.269 320 320 320c176.731 0 320-143.269 320-320v0c0-176.731-143.269-320-320-320v0zM704 736c-159.058 0-288-128.942-288-288s128.942-288 288-288c159.058 0 288 128.942 288 288v0c0 159.058-128.942 288-288 288v0z" />
<glyph unicode="hidden" glyph-name="hidden" data-tags="hidden" d="M511.839 189.82c-280.623 0-487.942 237.674-496.661 247.685l-9.042 10.657 9.042 10.334c8.719 10.334 216.038 248.008 496.661 248.008s489.234-237.674 496.661-248.008l9.042-10.334-9.042-10.657c-7.427-10.011-216.038-247.685-496.661-247.685zM49.408 448.161c43.595-46.178 229.601-226.049 462.431-226.049s419.804 179.87 462.431 226.049c-43.272 45.856-229.278 226.049-462.431 226.049s-418.836-180.193-462.431-226.049zM511.839 318.991c-71.339 0-129.171 57.832-129.171 129.171s57.832 129.171 129.171 129.171c71.339 0 129.171-57.832 129.171-129.171v0c0-71.339-57.832-129.171-129.171-129.171v0zM511.839 545.039c-53.504 0-96.878-43.374-96.878-96.878s43.374-96.878 96.878-96.878c53.504 0 96.878 43.374 96.878 96.878v0c0 53.504-43.374 96.878-96.878 96.878v0zM-0.26-40.95l1001.058 1001.058 22.834-22.834-1001.058-1001.058-22.834 22.834z" />
<glyph unicode="general" glyph-name="general" data-tags="general" d="M1024-64h-1024v1024h1024zM32-32h960v960h-960zM320 336c0 0.005 0 0.011 0 0.016 0 38.519-27.223 70.68-63.479 78.292l-0.521 0.092v289.6h-32v-289.6c-39.061-5.723-68.715-38.998-68.715-79.2s29.653-73.477 68.28-79.148l0.434-0.052v-64h32v64c36.785 7.697 64.016 39.862 64.016 78.387 0 0.567-0.006 1.133-0.018 1.697l0.001-0.084zM240 288c-26.51 0-48 21.49-48 48s21.49 48 48 48c26.51 0 48-21.49 48-48v0c0-26.51-21.49-48-48-48v0zM608 560c0 0.005 0 0.011 0 0.016 0 38.519-27.223 70.68-63.479 78.292l-0.521 0.092v65.6h-32v-65.6c-39.061-5.723-68.715-38.998-68.715-79.2s29.653-73.477 68.28-79.148l0.434-0.052v-288h32v288c36.785 7.697 64.016 39.862 64.016 78.387 0 0.567-0.006 1.133-0.018 1.697l0.001-0.084zM528 512c-26.51 0-48 21.49-48 48s21.49 48 48 48c26.51 0 48-21.49 48-48v0c0-26.51-21.49-48-48-48v0zM896 336c0 0.005 0 0.011 0 0.016 0 38.519-27.223 70.68-63.479 78.292l-0.521 0.092v289.6h-32v-289.6c-39.061-5.723-68.715-38.998-68.715-79.2s29.653-73.477 68.28-79.148l0.434-0.052v-64h32v64c36.785 7.697 64.016 39.862 64.016 78.387 0 0.567-0.006 1.133-0.018 1.697l0.001-0.084zM816 288c-26.51 0-48 21.49-48 48s21.49 48 48 48c26.51 0 48-21.49 48-48v0c0-26.51-21.49-48-48-48v0z" />
<glyph unicode="flag" glyph-name="flag" data-tags="flag" horiz-adv-x="768" d="M576 480h-576v480h576zM32 512h512v416h-512zM768 384h-480v112h32v-80h416v384h-176v32h208v-448zM0 496h32v-560h-32v560z" />
<glyph unicode="file-upload" glyph-name="file-upload" data-tags="file-upload" horiz-adv-x="769" d="M769.202-64h-769.202v769.202h288.451v-32.050h-256.401v-705.102h705.102v705.102h-255.119v32.050h287.169v-769.202zM368.576 929.552h32.050v-384.601h-32.050v384.601zM509.276 790.135l-124.675 124.675-124.675-124.675-22.756 22.435 147.43 147.43 147.43-147.43-22.756-22.435zM160.25 448.801h448.701v-32.050h-448.701v32.050zM160.25 288.551h256.401v-32.050h-256.401v32.050zM160.25 128.3h448.701v-32.050h-448.701v32.050z" />
<glyph unicode="fields" glyph-name="fields" data-tags="fields" d="M768-64h-768v1024h502.72l265.28-265.28v-102.72h-32v89.28l-246.72 246.72h-457.28v-960h704v112h32v-144zM752 672h-272v272h32v-240h240v-32zM1024 64h-832v544h832zM224 96h768v480h-768zM480 480h224v-32h-224v32zM480 224h224v-32h-224v32zM576 464h32v-256h-32v256z" />
<glyph unicode="email-envelope" glyph-name="email-envelope" data-tags="email-envelope" d="M896 0h-896v608h497.92v-32h-465.92v-544h832v370.24h32v-402.24zM448 219.52l-442.24 360 20.48 24.96 421.76-344 179.84 146.88 20.16-24.96-200-162.88zM752 352c-150.221 0-272 121.779-272 272s121.779 272 272 272c150.221 0 272-121.779 272-272v0c-0.182-150.148-121.852-271.818-271.982-272h-0.018zM752 864c-132.548 0-240-107.452-240-240s107.452-240 240-240c132.548 0 240 107.452 240 240v0c0 132.548-107.452 240-240 240v0zM826.56 468.48c-23.569-12.944-51.648-20.559-81.505-20.559-1.834 0-3.661 0.029-5.481 0.086l0.266-0.007c-82.004 0.694-148.214 67.333-148.214 149.435 0 3.718 0.136 7.404 0.403 11.053l-0.029-0.488c0 105.6 69.76 197.12 177.92 197.12 0.944 0.023 2.056 0.036 3.171 0.036 76.878 0 139.2-62.322 139.2-139.2 0-3.165-0.106-6.306-0.314-9.418l0.023 0.422c0-77.12-40.96-122.24-86.72-122.24-19.52 0-37.76 14.080-36.16 45.12h-1.92c-12.263-26.436-38.349-44.561-68.728-45.119l-0.072-0.001c-29.836 2.188-53.213 26.932-53.213 57.135 0 2.419 0.15 4.804 0.441 7.144l-0.028-0.28c-0.028 0.966-0.044 2.102-0.044 3.242 0 64.458 51.369 116.917 115.402 118.675l0.162 0.004c0.405 0.005 0.884 0.007 1.363 0.007 18.511 0 36.086-4.010 51.902-11.208l-0.786 0.32-16.64-92.8c-7.36-39.040-1.6-57.28 14.72-57.6 24.64 0 52.48 34.24 52.48 93.76 0 74.56-42.24 128-118.080 128s-146.24-65.6-146.24-169.92c0-85.76 53.12-138.56 125.44-138.56 1.031-0.026 2.245-0.041 3.463-0.041 25.724 0 49.894 6.656 70.88 18.341l-0.743-0.38zM800 690.24c-7.129 2.435-15.341 3.841-23.882 3.841-0.154 0-0.308 0-0.462-0.001h0.024c-43.985-4.586-77.982-41.462-77.982-86.279 0-2.182 0.081-4.346 0.239-6.487l-0.017 0.286c0-22.72 10.56-39.040 32-39.040 28.48 0 54.4 38.080 59.52 69.76zM517.852 291.765l20.264 24.766 351.931-287.95-20.264-24.766-351.931 287.95zM5.641 28.284l352.132 287.704 20.247-24.781-352.132-287.704-20.247 24.781z" />
<glyph unicode="email" glyph-name="email" data-tags="email" horiz-adv-x="1020" d="M774.437 81.908l-774.437 505.398 1020.369 372.694zM73.284 577.073l681.676-442.347 216.222 772.456zM352.227-64v443.667l615.985 549.632 22.117-24.758-605.091-539.729v-348.596l206.649 208.629 23.438-23.108-263.097-265.738z" />
<glyph unicode="dropdown" glyph-name="dropdown" data-tags="dropdown" d="M1024-64h-1024v1024h1024zM32-32h960v960h-960zM512 317.44l-227.2 227.2 22.72 22.4 204.48-204.16 204.48 204.16 22.72-22.4-227.2-227.2z" />
<glyph unicode="custom-html" glyph-name="custom-html" data-tags="custom-html" d="M1024-64h-1024v1024h1024zM32-32h960v960h-960zM356.8 300.8l-147.2 147.2 147.2 147.2 22.4-22.72-124.48-124.48 124.48-124.48-22.4-22.72zM667.2 300.8l-22.4 22.72 124.48 124.48-124.48 124.48 22.4 22.72 147.2-147.2-147.2-147.2zM433.609 327.017l127.961 255.867 28.62-14.313-127.961-255.867-28.62 14.313z" />
<glyph unicode="clip-copy" glyph-name="clip-copy" data-tags="clip-copy" horiz-adv-x="896" d="M128 384h256v-64h-256v64zM128 192h160v-64h-160v64zM672 768h-128v32c0 88.366-71.634 160-160 160s-160-71.634-160-160v0-32h-128c-53.019 0-96-42.981-96-96v0-640c0-53.019 42.981-96 96-96v0h576c53.019 0 96 42.981 96 96v0 160h-64v-160c0-17.673-14.327-32-32-32v0h-576c-17.673 0-32 14.327-32 32v0 480h640v-128h64v288c0 53.019-42.981 96-96 96v0zM288 800c0 53.019 42.981 96 96 96s96-42.981 96-96v0-32h-192zM64 576v96c0 17.673 14.327 32 32 32v0h576c17.673 0 32-14.327 32-32v0-96zM572.16 256h323.84v64h-323.84l58.56 58.56-45.44 45.12-135.68-135.68 135.68-135.68 45.44 45.12-58.56 58.56z" />
<glyph unicode="checkbox" glyph-name="checkbox" data-tags="checkbox" d="M896 0h-896v896h896v-160h-32v128h-832v-832h832v448h32v-480zM364.8 250.24l-137.28 171.84 24.96 19.84 118.72-148.16 627.52 439.36 18.56-26.24-652.48-456.64z" />
<glyph unicode="calendar" glyph-name="calendar" data-tags="calendar" horiz-adv-x="1026" d="M1025.603-65.603h-1025.603v897.402h1025.603zM32.050-33.552h961.502v833.302h-961.502zM256.401 960h32.050v-224.351h-32.050v224.351zM737.152 960h32.050v-224.351h-32.050v224.351zM16.025 607.449h993.552v-32.050h-993.552v32.050z" />
<glyph unicode="Asset-290" glyph-name="Asset-290" data-tags="Asset 290" d="M511.757 672c0 88.366-71.635 160-160 160s-160-71.635-160-160c0-88.366 71.635-160 160-160v0c88.366 0 160 71.635 160 160v0zM351.756 544c-70.693 0-128 57.308-128 128s57.308 128 128 128c70.693 0 128-57.308 128-128v0c0-70.693-57.308-128-128-128v0zM1023.756 800v32h-352v-526.080c-56.977 122.192-178.776 205.359-320.001 205.359-194.151 0-351.59-157.185-351.999-351.24v-96.039h704v448h192v32h-192v256zM671.756 96h-640v64c0 176.731 143.269 320 320 320s320-143.269 320-320v0z" />
</font>
</defs>
</svg>
