<?xml version="1.0" standalone="no"?>
<!DOCTYPE svg PUBLIC "-//W3C//DTD SVG 1.1//EN" "http://www.w3.org/Graphics/SVG/1.1/DTD/svg11.dtd" >
<svg xmlns="http://www.w3.org/2000/svg">
<metadata>
<json>
<![CDATA[
{
	"fontFamily": "EverestForms",
	"fontURL": "https://wpeverest.com/wordpress-plugins/everest-forms/",
	"designer": "srijana kunwar",
	"designerURL": "https://wpeverest.com",
	"license": "SIL OFL",
	"licenseURL": "http://scripts.sil.org/cms/scripts/page.php?site_id=nrsi&id=OFL",
	"description": "Iconfont for Everest Form\nFont generated by IcoMoon.",
	"copyright": "2018",
	"majorVersion": 1,
	"minorVersion": 7,
	"version": "Version 1.7",
	"fontId": "EverestForms",
	"psName": "EverestForms",
	"subFamily": "Regular",
	"fullName": "EverestForms"
}
]]>
</json>
</metadata>
<defs>
<font id="EverestForms" horiz-adv-x="1024">
<font-face units-per-em="1024" ascent="960" descent="-64" />
<missing-glyph horiz-adv-x="1024" />
<glyph unicode="&#x20;" horiz-adv-x="512" d="" />
<glyph unicode="&#xe001;" glyph-name="general" data-tags="general" d="M1024-64h-1024v1024h1024zM32-32h960v960h-960zM320 336c0 0.005 0 0.011 0 0.016 0 38.519-27.223 70.68-63.479 78.292l-0.521 0.092v289.6h-32v-289.6c-39.061-5.723-68.715-38.998-68.715-79.2s29.653-73.477 68.28-79.148l0.434-0.052v-64h32v64c36.785 7.697 64.016 39.862 64.016 78.387 0 0.567-0.006 1.133-0.018 1.697l0.001-0.084zM240 288c-26.51 0-48 21.49-48 48s21.49 48 48 48c26.51 0 48-21.49 48-48v0c0-26.51-21.49-48-48-48v0zM608 560c0 0.005 0 0.011 0 0.016 0 38.519-27.223 70.68-63.479 78.292l-0.521 0.092v65.6h-32v-65.6c-39.061-5.723-68.715-38.998-68.715-79.2s29.653-73.477 68.28-79.148l0.434-0.052v-288h32v288c36.785 7.697 64.016 39.862 64.016 78.387 0 0.567-0.006 1.133-0.018 1.697l0.001-0.084zM528 512c-26.51 0-48 21.49-48 48s21.49 48 48 48c26.51 0 48-21.49 48-48v0c0-26.51-21.49-48-48-48v0zM896 336c0 0.005 0 0.011 0 0.016 0 38.519-27.223 70.68-63.479 78.292l-0.521 0.092v289.6h-32v-289.6c-39.061-5.723-68.715-38.998-68.715-79.2s29.653-73.477 68.28-79.148l0.434-0.052v-64h32v64c36.785 7.697 64.016 39.862 64.016 78.387 0 0.567-0.006 1.133-0.018 1.697l0.001-0.084zM816 288c-26.51 0-48 21.49-48 48s21.49 48 48 48c26.51 0 48-21.49 48-48v0c0-26.51-21.49-48-48-48v0z" />
<glyph unicode="&#xe002;" glyph-name="setting" data-tags="setting" d="M377.479 336.227l617.306 617.306 22.863-22.863-617.306-617.306-22.863 22.863zM137.094-64l-137.094 137.417 343.058 342.734 137.094-137.094zM45.59 73.417l91.504-91.504 297.468 297.144-91.504 91.504zM231.507 507.332c-0.049 0-0.107 0-0.165 0-125.001 0-226.334 101.333-226.334 226.334 0 31.019 6.24 60.581 17.533 87.499l-0.555-1.492 10.347 22.633 129.334-131.597 92.474 91.504-131.274 131.274 22.31 9.377c25.532 10.838 55.226 17.137 86.392 17.137 125.001 0 226.334-101.333 226.334-226.334s-101.333-226.334-226.334-226.334c-0.022 0-0.043 0-0.065 0h0.003zM43.973 783.783c-4.209-15.080-6.628-32.397-6.628-50.278 0-107.144 86.857-194.001 194.001-194.001s194.001 86.857 194.001 194.001c0 107.144-86.857 194.001-194.001 194.001-17.882 0-35.199-2.419-51.641-6.949l1.362 0.32 118.987-118.664-138.387-137.094zM368.711 573.293l22.863 22.863 434.401-434.401-22.863-22.863-434.401 434.401zM894.343-58.827c-71.385 0.058-129.232 57.94-129.232 129.334 0 71.429 57.905 129.334 129.334 129.334s129.334-57.905 129.334-129.334c0-35.74-14.497-68.094-37.931-91.503l-0.001-0.001c-23.4-23.374-55.713-37.83-91.402-37.83-0.036 0-0.071 0-0.107 0h0.005zM894.343 167.507c-0.025 0-0.055 0-0.085 0-53.572 0-97-43.429-97-97s43.429-97 97-97c53.572 0 97 43.429 97 97 0 26.765-10.84 50.998-28.369 68.548l0.001-0.001c-17.538 17.559-41.771 28.429-68.542 28.453h-0.005z" />
<glyph unicode="&#xe003;" glyph-name="lock" data-tags="lock" horiz-adv-x="896" d="M816-64h-736c-44.183 0-80 35.817-80 80v0 544c0 44.183 35.817 80 80 80v0h736c44.183 0 80-35.817 80-80v0-544c0-44.183-35.817-80-80-80v0zM80 608c-26.51 0-48-21.49-48-48v0-544c0-26.51 21.49-48 48-48v0h736c26.51 0 48 21.49 48 48v0 544c0 26.51-21.49 48-48 48v0zM704 608h-512v96c0 141.385 114.615 256 256 256s256-114.615 256-256v0zM224 640h448v64c0 123.712-100.288 224-224 224s-224-100.288-224-224v0zM448 256c-53.019 0-96 42.981-96 96s42.981 96 96 96c53.019 0 96-42.981 96-96v0c0-53.019-42.981-96-96-96v0zM448 416c-35.346 0-64-28.654-64-64s28.654-64 64-64c35.346 0 64 28.654 64 64v0c0 35.346-28.654 64-64 64v0zM432 288h32v-160h-32v160z" />
<glyph unicode="&#xe004;" glyph-name="password" data-tags="password" horiz-adv-x="896" d="M816-64h-736c-44.183 0-80 35.817-80 80v0 544c0 44.183 35.817 80 80 80v0h736c44.183 0 80-35.817 80-80v0-544c0-44.183-35.817-80-80-80v0zM80 608c-26.51 0-48-21.49-48-48v0-544c0-26.51 21.49-48 48-48v0h736c26.51 0 48 21.49 48 48v0 544c0 26.51-21.49 48-48 48v0zM704 608h-512v96c0 141.385 114.615 256 256 256s256-114.615 256-256v0zM224 640h448v64c0 123.712-100.288 224-224 224s-224-100.288-224-224v0zM256 256c-17.673 0-32 14.327-32 32s14.327 32 32 32c17.673 0 32-14.327 32-32v0c0-17.673-14.327-32-32-32v0zM512 256c-17.673 0-32 14.327-32 32s14.327 32 32 32c17.673 0 32-14.327 32-32v0c0-17.673-14.327-32-32-32v0zM384 256c-17.673 0-32 14.327-32 32s14.327 32 32 32c17.673 0 32-14.327 32-32v0c0-17.673-14.327-32-32-32v0zM640 256c-17.673 0-32 14.327-32 32s14.327 32 32 32c17.673 0 32-14.327 32-32v0c0-17.673-14.327-32-32-32v0z" />
<glyph unicode="&#xe005;" glyph-name="email" data-tags="email" horiz-adv-x="1020" d="M774.437 81.908l-774.437 505.398 1020.369 372.694zM73.284 577.073l681.676-442.347 216.222 772.456zM352.227-64v443.667l615.985 549.632 22.117-24.758-605.091-539.729v-348.596l206.649 208.629 23.438-23.108-263.097-265.738z" />
<glyph unicode="&#xe006;" glyph-name="email-envelope" data-tags="email-envelope" d="M896 0h-896v608h497.92v-32h-465.92v-544h832v370.24h32v-402.24zM448 219.52l-442.24 360 20.48 24.96 421.76-344 179.84 146.88 20.16-24.96-200-162.88zM752 352c-150.221 0-272 121.779-272 272s121.779 272 272 272c150.221 0 272-121.779 272-272v0c-0.182-150.148-121.852-271.818-271.982-272h-0.018zM752 864c-132.548 0-240-107.452-240-240s107.452-240 240-240c132.548 0 240 107.452 240 240v0c0 132.548-107.452 240-240 240v0zM826.56 468.48c-23.569-12.944-51.648-20.559-81.505-20.559-1.834 0-3.661 0.029-5.481 0.086l0.266-0.007c-82.004 0.694-148.214 67.333-148.214 149.435 0 3.718 0.136 7.404 0.403 11.053l-0.029-0.488c0 105.6 69.76 197.12 177.92 197.12 0.944 0.023 2.056 0.036 3.171 0.036 76.878 0 139.2-62.322 139.2-139.2 0-3.165-0.106-6.306-0.314-9.418l0.023 0.422c0-77.12-40.96-122.24-86.72-122.24-19.52 0-37.76 14.080-36.16 45.12h-1.92c-12.263-26.436-38.349-44.561-68.728-45.119l-0.072-0.001c-29.836 2.188-53.213 26.932-53.213 57.135 0 2.419 0.15 4.804 0.441 7.144l-0.028-0.28c-0.028 0.966-0.044 2.102-0.044 3.242 0 64.458 51.369 116.917 115.402 118.675l0.162 0.004c0.405 0.005 0.884 0.007 1.363 0.007 18.511 0 36.086-4.010 51.902-11.208l-0.786 0.32-16.64-92.8c-7.36-39.040-1.6-57.28 14.72-57.6 24.64 0 52.48 34.24 52.48 93.76 0 74.56-42.24 128-118.080 128s-146.24-65.6-146.24-169.92c0-85.76 53.12-138.56 125.44-138.56 1.031-0.026 2.245-0.041 3.463-0.041 25.724 0 49.894 6.656 70.88 18.341l-0.743-0.38zM800 690.24c-7.129 2.435-15.341 3.841-23.882 3.841-0.154 0-0.308 0-0.462-0.001h0.024c-43.985-4.586-77.982-41.462-77.982-86.279 0-2.182 0.081-4.346 0.239-6.487l-0.017 0.286c0-22.72 10.56-39.040 32-39.040 28.48 0 54.4 38.080 59.52 69.76zM517.852 291.765l20.264 24.766 351.931-287.95-20.264-24.766-351.931 287.95zM5.641 28.284l352.132 287.704 20.247-24.781-352.132-287.704-20.247 24.781z" />
<glyph unicode="&#xe007;" glyph-name="map-marker" data-tags="map-marker" d="M512-71.597l-11.892 12.883c-15.855 16.516-384.495 408.279-384.495 622.328 0 218.919 177.469 396.387 396.387 396.387s396.387-177.469 396.387-396.387v0c0-214.049-368.64-605.812-384.495-622.328zM512 926.968c-200.675 0-363.355-162.68-363.355-363.355v0c0-180.356 299.272-516.625 363.355-586.653 64.083 70.028 363.355 406.297 363.355 586.653 0 200.675-162.68 363.355-363.355 363.355v0zM512 332.387c-127.702 0-231.226 103.523-231.226 231.226s103.523 231.226 231.226 231.226c127.702 0 231.226-103.523 231.226-231.226v0c0-127.702-103.523-231.226-231.226-231.226v0zM512 761.806c-109.459 0-198.194-88.734-198.194-198.194s88.734-198.194 198.194-198.194c109.459 0 198.194 88.734 198.194 198.194v0c0 109.459-88.734 198.194-198.194 198.194v0z" />
<glyph unicode="&#xe008;" glyph-name="map-marker-city" data-tags="map-marker-city" d="M856.857 391.185l-29.399 14.534c5.615 11.231 10.901 22.462 15.525 33.032l30.39-13.213c-4.955-11.231-10.57-22.792-16.516-34.354zM873.373 425.868l-30.39 13.213c4.955 10.901 9.249 21.801 13.213 33.032l31.050-11.231c-4.294-11.892-8.919-23.453-13.874-35.014zM578.065 398.452h-33.032v297.29h165.161v-165.161h162.188c1.866 9.918 2.947 21.34 2.973 33.010v0.023c0 200.675-162.68 363.355-363.355 363.355s-363.355-162.68-363.355-363.355v0c2.79-45.938 14.681-88.49 33.885-126.737l-0.853 1.875-30.059-13.543c-20.22 40.342-33.208 87.548-35.964 137.482l-0.041 0.923c0 218.919 177.469 396.387 396.387 396.387s396.387-177.469 396.387-396.387v0c-0.182-18.472-2.339-36.343-6.269-53.539l0.323 1.679-2.973-12.883-222.307-1.321v165.161h-99.097zM512-71.597l-11.892 12.883c-2.312 2.312-218.343 231.226-324.377 433.053l-12.883 24.114h117.925v165.161h90.839l99.097-132.129h90.839v-33.032h-107.355l-99.097 132.129h-41.29v-165.161h-95.794c90.111-146.413 187.134-273.485 295.385-389.981l-1.398 1.522c48.227 52.521 228.253 254.679 315.458 429.419l29.399-14.534c-102.73-205.791-323.386-439.99-332.965-449.899z" />
<glyph unicode="&#xe009;" glyph-name="zip-code" data-tags="zip-code" horiz-adv-x="1018" d="M508.82 316.025l-11.448 12.084c-9.858 10.494-236.283 251.23-236.283 384.159 0 136.818 110.913 247.732 247.732 247.732s247.732-110.913 247.732-247.732v0c0-132.929-226.425-373.665-236.283-384.159zM508.82 928.199c-119.182-0.181-215.75-96.748-215.93-215.913v-0.017c0-104.308 169.501-298.614 215.93-349.814 46.43 50.882 215.93 245.188 215.93 349.814-0.181 119.182-96.748 215.75-215.913 215.93h-0.017zM508.82 616.865c-52.69 0-95.404 42.714-95.404 95.404s42.714 95.404 95.404 95.404c52.69 0 95.404-42.714 95.404-95.404v0c0-52.69-42.714-95.404-95.404-95.404v0zM508.82 775.871c-35.127 0-63.602-28.476-63.602-63.602s28.476-63.602 63.602-63.602c35.127 0 63.602 28.476 63.602 63.602v0c0 35.127-28.476 63.602-63.602 63.602v0zM1017.64-64l-412.462 131.975-286.847-127.523-318.33 134.201v765.774l285.893-120.209-12.084-29.575-242.007 102.082v-697.083l285.893-120.527 285.575 126.887 382.569-122.435v698.037l-249.958 79.503 9.54 30.529 272.219-86.499v-765.138zM286.211 625.769h31.801v-651.925h-31.801v651.925zM604.224 466.763h31.801v-397.516h-31.801v397.516z" />
<glyph unicode="&#xe00a;" glyph-name="flag" data-tags="flag" horiz-adv-x="768" d="M576 480h-576v480h576zM32 512h512v416h-512zM768 384h-480v112h32v-80h416v384h-176v32h208v-448zM0 496h32v-560h-32v560z" />
<glyph unicode="&#xe00b;" glyph-name="fields" data-tags="fields" d="M768-64h-768v1024h502.72l265.28-265.28v-102.72h-32v89.28l-246.72 246.72h-457.28v-960h704v112h32v-144zM752 672h-272v272h32v-240h240v-32zM1024 64h-832v544h832zM224 96h768v480h-768zM480 480h224v-32h-224v32zM480 224h224v-32h-224v32zM576 464h32v-256h-32v256z" />
<glyph unicode="&#xe00c;" glyph-name="clip-copy" data-tags="clip-copy" horiz-adv-x="896" d="M128 384h256v-64h-256v64zM128 192h160v-64h-160v64zM672 768h-128v32c0 88.366-71.634 160-160 160s-160-71.634-160-160v0-32h-128c-53.019 0-96-42.981-96-96v0-640c0-53.019 42.981-96 96-96v0h576c53.019 0 96 42.981 96 96v0 160h-64v-160c0-17.673-14.327-32-32-32v0h-576c-17.673 0-32 14.327-32 32v0 480h640v-128h64v288c0 53.019-42.981 96-96 96v0zM288 800c0 53.019 42.981 96 96 96s96-42.981 96-96v0-32h-192zM64 576v96c0 17.673 14.327 32 32 32v0h576c17.673 0 32-14.327 32-32v0-96zM572.16 256h323.84v64h-323.84l58.56 58.56-45.44 45.12-135.68-135.68 135.68-135.68 45.44 45.12-58.56 58.56z" />
<glyph unicode="&#xe00d;" glyph-name="first-name" data-tags="first-name" d="M512 672c0 88.366-71.634 160-160 160s-160-71.634-160-160c0-88.366 71.634-160 160-160v0c88.366 0 160 71.634 160 160v0zM352 544c-70.692 0-128 57.308-128 128s57.308 128 128 128c70.692 0 128-57.308 128-128v0c0-70.692-57.308-128-128-128v0zM1024 800v32h-352v-526.080c-56.976 122.192-178.776 205.359-320.001 205.359-194.151 0-351.589-157.185-351.999-351.24v-96.039h704v448h192v32h-192v256zM672 96h-640v64c0 176.731 143.269 320 320 320s320-143.269 320-320v0z" />
<glyph unicode="&#xe00e;" glyph-name="last-name" data-tags="last-name" d="M512 672c0 88.366-71.634 160-160 160s-160-71.634-160-160c0-88.366 71.634-160 160-160v0c88.366 0 160 71.634 160 160v0zM352 544c-70.692 0-128 57.308-128 128s57.308 128 128 128c70.692 0 128-57.308 128-128v0c0-70.692-57.308-128-128-128v0zM1024 64v32h-320v736h-32v-526.080c-56.976 122.192-178.776 205.359-320.001 205.359-194.151 0-351.589-157.185-351.999-351.24v-96.039h1024zM672 96h-640v64c0 176.731 143.269 320 320 320s320-143.269 320-320v0z" />
<glyph unicode="&#xe00f;" glyph-name="text" data-tags="text" d="M496 960h32v-1024h-32v1024zM0 960h1024v-32h-1024v32zM0 960h32v-288h-32v288zM256-32h512v-32h-512v32zM992 960h32v-288h-32v288z" />
<glyph unicode="&#xe010;" glyph-name="paragraph" data-tags="paragraph" horiz-adv-x="512" d="M480 960h32v-1024h-32v1024zM384 960h32v-1024h-32v1024zM240 480c-132.548 0-240 107.452-240 240s107.452 240 240 240v0c0.213 0.001 0.466 0.001 0.719 0.001 66.034 0 125.78-26.92 168.864-70.384l0.017-0.017-22.4-22.4c-37.707 38.045-89.979 61.6-147.753 61.6-114.875 0-208-93.125-208-208s93.125-208 208-208c57.774 0 110.047 23.555 147.738 61.585l0.015 0.015 23.040-22.4c-43.254-44.297-103.515-71.822-170.206-72h-0.034z" />
<glyph unicode="&#xe011;" glyph-name="dropdown" data-tags="dropdown" d="M1024-64h-1024v1024h1024zM32-32h960v960h-960zM512 317.44l-227.2 227.2 22.72 22.4 204.48-204.16 204.48 204.16 22.72-22.4-227.2-227.2z" />
<glyph unicode="&#xe012;" glyph-name="checkbox" data-tags="checkbox" d="M896 0h-896v896h896v-160h-32v128h-832v-832h832v448h32v-480zM364.8 250.24l-137.28 171.84 24.96 19.84 118.72-148.16 627.52 439.36 18.56-26.24-652.48-456.64z" />
<glyph unicode="&#xe013;" glyph-name="multiple-choices" data-tags="multiple-choices" d="M288 672h-288v288h288zM32 704h224v224h-224zM416 832h608v-32h-608v32zM288 320h-288v288h288zM32 352h224v224h-224zM416 480h608v-32h-608v32zM288-64h-288v288h288zM32-32h224v224h-224zM416 96h608v-32h-608v32z" />
<glyph unicode="&#xe014;" glyph-name="multiple-choices-radio" data-tags="multiple-choices-radio" d="M112 736c-61.856 0-112 50.144-112 112s50.144 112 112 112c61.856 0 112-50.144 112-112v0c0-61.856-50.144-112-112-112v0zM112 928c-44.183 0-80-35.817-80-80s35.817-80 80-80c44.183 0 80 35.817 80 80v0c0 44.183-35.817 80-80 80v0zM352 864h672v-32h-672v32zM112 352c-61.856 0-112 50.144-112 112s50.144 112 112 112c61.856 0 112-50.144 112-112v0c0-61.856-50.144-112-112-112v0zM112 544c-44.183 0-80-35.817-80-80s35.817-80 80-80c44.183 0 80 35.817 80 80v0c0 44.183-35.817 80-80 80v0zM112 432c-17.673 0-32 14.327-32 32s14.327 32 32 32c17.673 0 32-14.327 32-32v0c0-17.673-14.327-32-32-32v0zM352 480h672v-32h-672v32zM112-64c-61.856 0-112 50.144-112 112s50.144 112 112 112c61.856 0 112-50.144 112-112v0c0-61.856-50.144-112-112-112v0zM112 128c-44.183 0-80-35.817-80-80s35.817-80 80-80c44.183 0 80 35.817 80 80v0c0 44.183-35.817 80-80 80v0zM352 64h672v-32h-672v32z" />
<glyph unicode="&#xe015;" glyph-name="number" data-tags="number" d="M1024-64h-1024v1024h1024zM32-32h960v960h-960zM256 576h512v-32h-512v32zM256 352h512v-32h-512v32zM579.837 198.82l88.996 504.206 31.513-5.562-88.996-504.206-31.513 5.562zM341.278 198.609l88.996 504.206 31.513-5.562-88.996-504.206-31.513 5.562z" />
<glyph unicode="&#xe016;" glyph-name="website" data-tags="website" d="M532.8-57.6l-25.28 19.52c102.606 132.318 164.484 300.699 164.484 483.532 0 0.896-0.001 1.791-0.004 2.686v-0.139c0.002 0.728 0.004 1.59 0.004 2.452 0 183.018-62.003 351.554-166.149 485.75l1.345-1.802 25.6 19.2c106.794-137.526 171.205-312.6 171.205-502.718 0-1.013-0.002-2.026-0.005-3.039v0.157c0.003-0.791 0.004-1.728 0.004-2.665 0-190.188-64.409-365.333-172.604-504.811l1.4 1.876zM491.2-57.6c-106.795 137.602-171.204 312.747-171.204 502.935 0 0.937 0.002 1.874 0.005 2.811v-0.146c-0.003 0.856-0.005 1.869-0.005 2.882 0 190.118 64.411 365.192 172.602 504.589l-1.397-1.871 25.6-19.2c-102.775-133.201-164.728-302.486-164.728-486.24s61.953-353.039 166.11-488.105l-1.382 1.865zM512 640c-145.655 0.014-282.586 37.355-401.752 102.977l4.312-2.177 15.36 27.2c110.016-60.444 241.089-96.002 380.467-96.002 0.567 0 1.135 0.001 1.702 0.002h-0.088c0.479-0.001 1.046-0.002 1.613-0.002 139.378 0 270.451 35.558 384.642 98.096l-4.176-2.095 15.36-28.16c-114.436-62.862-250.773-99.842-395.747-99.842-0.595 0-1.191 0.001-1.786 0.002h0.093zM129.92 128l-15.36 28.16c114.694 63.459 251.466 100.805 396.96 100.805s282.265-37.346 401.251-102.974l-4.291 2.17-15.040-28.16c-110.3 61.041-241.835 96.964-381.76 96.964s-271.46-35.924-385.885-99.051l4.125 2.087zM496 944h32v-992h-32v992zM512-64c-282.77 0-512 229.23-512 512s229.23 512 512 512c282.77 0 512-229.23 512-512v0c0-282.77-229.23-512-512-512v0zM512 928c-265.097 0-480-214.903-480-480s214.903-480 480-480c265.097 0 480 214.903 480 480v0c0 265.097-214.903 480-480 480v0zM0 464h1024v-32h-1024v32z" />
<glyph unicode="&#xe017;" glyph-name="calendar" data-tags="calendar" horiz-adv-x="1026" d="M1025.603-65.603h-1025.603v897.402h1025.603zM32.050-33.552h961.502v833.302h-961.502zM256.401 960h32.050v-224.351h-32.050v224.351zM737.152 960h32.050v-224.351h-32.050v224.351zM16.025 607.449h993.552v-32.050h-993.552v32.050z" />
<glyph unicode="&#xe018;" glyph-name="single-item" data-tags="single-item" horiz-adv-x="768" d="M768-64h-768v1024h502.72l265.28-265.28zM32-32h704v713.28l-246.72 246.72h-457.28zM752 672h-272v272h32v-240h240v-32z" />
<glyph unicode="&#xe019;" glyph-name="file-upload" data-tags="file-upload" horiz-adv-x="769" d="M769.202-64h-769.202v769.202h288.451v-32.050h-256.401v-705.102h705.102v705.102h-255.119v32.050h287.169v-769.202zM368.576 929.552h32.050v-384.601h-32.050v384.601zM509.276 790.135l-124.675 124.675-124.675-124.675-22.756 22.435 147.43 147.43 147.43-147.43-22.756-22.435zM160.25 448.801h448.701v-32.050h-448.701v32.050zM160.25 288.551h256.401v-32.050h-256.401v32.050zM160.25 128.3h448.701v-32.050h-448.701v32.050z" />
<glyph unicode="&#xe01a;" glyph-name="hidden" data-tags="hidden" d="M511.839 189.82c-280.623 0-487.942 237.674-496.661 247.685l-9.042 10.657 9.042 10.334c8.719 10.334 216.038 248.008 496.661 248.008s489.234-237.674 496.661-248.008l9.042-10.334-9.042-10.657c-7.427-10.011-216.038-247.685-496.661-247.685zM49.408 448.161c43.595-46.178 229.601-226.049 462.431-226.049s419.804 179.87 462.431 226.049c-43.272 45.856-229.278 226.049-462.431 226.049s-418.836-180.193-462.431-226.049zM511.839 318.991c-71.339 0-129.171 57.832-129.171 129.171s57.832 129.171 129.171 129.171c71.339 0 129.171-57.832 129.171-129.171v0c0-71.339-57.832-129.171-129.171-129.171v0zM511.839 545.039c-53.504 0-96.878-43.374-96.878-96.878s43.374-96.878 96.878-96.878c53.504 0 96.878 43.374 96.878 96.878v0c0 53.504-43.374 96.878-96.878 96.878v0zM-0.26-40.95l1001.058 1001.058 22.834-22.834-1001.058-1001.058-22.834 22.834z" />
<glyph unicode="&#xe01b;" glyph-name="phone" data-tags="phone" horiz-adv-x="768" d="M688-64h-608c-44.183 0-80 35.817-80 80v0 864c0 44.183 35.817 80 80 80v0h608c44.183 0 80-35.817 80-80v0-864c0-44.183-35.817-80-80-80v0zM80 928c-26.51 0-48-21.49-48-48v0-864c0-26.51 21.49-48 48-48v0h608c26.51 0 48 21.49 48 48v0 864c0 26.51-21.49 48-48 48v0zM320 128h128v-32h-128v32zM352 800h256v-32h-256v32zM160 800h128v-32h-128v32z" />
<glyph unicode="&#xe01c;" glyph-name="custom-html" data-tags="custom-html" d="M1024-64h-1024v1024h1024zM32-32h960v960h-960zM356.8 300.8l-147.2 147.2 147.2 147.2 22.4-22.72-124.48-124.48 124.48-124.48-22.4-22.72zM667.2 300.8l-22.4 22.72 124.48 124.48-124.48 124.48 22.4 22.72 147.2-147.2-147.2-147.2zM433.609 327.017l127.961 255.867 28.62-14.313-127.961-255.867-28.62 14.313z" />
<glyph unicode="&#xe01d;" glyph-name="section-devider" data-tags="section-devider" horiz-adv-x="1029" d="M0 463.915h1028.823v-32.151h-1028.823v32.151zM639.478 789.601l-125.066 125.066-125.066-125.066-22.827 22.505 147.893 147.893 147.893-147.893-22.827-22.505zM498.336 930.1h32.151v-321.507h-32.151v321.507zM514.411-64l-147.893 147.893 22.827 22.827 125.066-125.066 125.066 125.066 22.827-22.827-147.893-147.893zM498.336 287.407h32.151v-321.507h-32.151v321.507z" />
<glyph unicode="&#xe01e;" glyph-name="integration" data-tags="integration" d="M320 128c-176.731 0-320 143.269-320 320s143.269 320 320 320c176.731 0 320-143.269 320-320v0c0-176.731-143.269-320-320-320v0zM320 736c-159.058 0-288-128.942-288-288s128.942-288 288-288c159.058 0 288 128.942 288 288v0c0 159.058-128.942 288-288 288v0zM704 128c-176.731 0-320 143.269-320 320s143.269 320 320 320c176.731 0 320-143.269 320-320v0c0-176.731-143.269-320-320-320v0zM704 736c-159.058 0-288-128.942-288-288s128.942-288 288-288c159.058 0 288 128.942 288 288v0c0 159.058-128.942 288-288 288v0z" />
<glyph unicode="&#xe01f;" glyph-name="payment" data-tags="payment" d="M1024 64h-1024v768h1024zM32 96h960v704h-960zM416 480h-256v192h256zM192 512h192v128h-192zM160 352h320v-32h-320v32zM160 256h128v-32h-128v32zM416 256h64v-32h-64v32zM720 192c-44.183 0-80 35.817-80 80s35.817 80 80 80c44.183 0 80-35.817 80-80v0c0-44.183-35.817-80-80-80v0zM720 320c-26.51 0-48-21.49-48-48s21.49-48 48-48c26.51 0 48 21.49 48 48v0c0 26.51-21.49 48-48 48v0zM784 192c-44.183 0-80 35.817-80 80s35.817 80 80 80c44.183 0 80-35.817 80-80v0c0-44.183-35.817-80-80-80v0zM784 320c-26.51 0-48-21.49-48-48s21.49-48 48-48c26.51 0 48 21.49 48 48v0c0 26.51-21.49 48-48 48v0z" />
<glyph unicode="&#xe020;" glyph-name="total" data-tags="total" horiz-adv-x="777" d="M404.551 146.367c-53.623 0-97.092 43.47-97.092 97.092v0h32.364c-0.001-0.112-0.001-0.243-0.001-0.375 0-35.748 28.98-64.728 64.728-64.728s64.728 28.98 64.728 64.728c0 31.282-22.19 57.38-51.688 63.414l-0.417 0.071h-12.298c-8.863 0.658-16.947 1.807-24.849 3.449l1.224-0.213c-42.7 10.818-73.79 48.906-73.79 94.255 0 53.623 43.47 97.092 97.092 97.092s97.092-43.47 97.092-97.092c0-0.026 0-0.053 0-0.079v0.004h-32.364c0 35.748-28.98 64.728-64.728 64.728s-64.728-28.98-64.728-64.728v0c0.707-29.382 20.887-53.861 48.095-61.066l0.452-0.102c5.489-1.35 12.010-2.383 18.679-2.888l0.415-0.025h13.917c44.736-9.268 77.879-48.35 77.879-95.172 0-52.898-42.303-95.916-94.925-97.069l-0.107-0.002zM388.369 550.918h32.364v-453.097h-32.364v453.097zM388.369 648.010c-2.669-0.128-5.797-0.2-8.942-0.2-43.093 0-82.998 13.65-115.627 36.863l0.614-0.415-3.884 4.855c0 3.236-111.98 223.96-111.98 223.96-2.131 4.198-3.38 9.153-3.38 14.4 0 8.128 2.996 15.556 7.944 21.24l-0.033-0.039c5.971 6.941 14.765 11.309 24.579 11.309 3.593 0 7.050-0.586 10.279-1.666l-0.228 0.066 190.625-64.728c13.855-4.906 29.834-7.741 46.475-7.741 23.663 0 45.988 5.733 65.66 15.885l-0.802-0.376 90.619 45.31c4.234 2.175 9.237 3.449 14.539 3.449 8.996 0 17.135-3.671 23.001-9.596l0.003-0.003c5.864-5.858 9.491-13.954 9.491-22.896 0-5.216-1.234-10.145-3.426-14.509l0.085 0.186-111.332-220.076c-30.491-22.377-68.763-35.809-110.172-35.809-4.964 0-9.883 0.193-14.75 0.572l0.645-0.040zM287.070 707.56c26.205-17.177 58.311-27.397 92.805-27.397 2.988 0 5.958 0.077 8.908 0.228l-0.414-0.017c2.896-0.178 6.28-0.279 9.689-0.279 33.654 0 65 9.878 91.299 26.893l-0.659-0.399 106.154 212.632-90.619-45.633c-23.090-11.784-50.361-18.688-79.244-18.688-20.286 0-39.777 3.406-57.931 9.677l1.246-0.374-190.625 63.434c75.732-151.788 100.976-202.276 109.391-220.076zM695.828-64h-614.918c-0.194-0.002-0.424-0.003-0.653-0.003-43.988 0-79.711 35.385-80.257 79.243l-0.001 0.052v367.009c0.52 160.294 112.9 294.192 263.141 327.751l2.245 0.421 9.709 2.265 6.149-7.767c25.429-20.533 58.145-32.961 93.764-32.961 4.704 0 9.357 0.217 13.95 0.641l-0.589-0.044c4.004-0.38 8.657-0.597 13.361-0.597 35.619 0 68.336 12.428 94.050 33.184l-0.286-0.223 6.149 7.767 9.709-2.265c152.485-33.98 264.866-167.878 265.385-328.114v-367.067c-0.547-43.91-36.27-79.295-80.257-79.295-0.23 0-0.459 0.001-0.688 0.003h0.035zM263.767 677.138c-133.587-33.989-230.899-152.978-231.403-294.78v-367.066c0.364-26.353 21.813-47.576 48.218-47.576 0.115 0 0.231 0 0.346 0.001h614.9c0.097-0.001 0.213-0.001 0.328-0.001 26.405 0 47.854 21.223 48.218 47.542v367.043c-0.504 141.859-97.817 260.848-229.293 294.381l-2.11 0.456c-31.695-23.412-71.541-37.473-114.67-37.473-3.494 0-6.966 0.092-10.414 0.274l0.482-0.020c-2.966-0.162-6.439-0.254-9.932-0.254-43.129 0-82.974 14.060-115.201 37.848l0.532-0.375z" />
<glyph unicode="&#xe021;" glyph-name="setting-cog" data-tags="setting-cog" d="M978.24 546.88l-58.56 8.32c-2.442 0.183-4.448 1.864-5.11 4.119l-0.010 0.041c-9.805 36.497-23.147 68.408-40.091 97.992l1.051-1.992c-0.608 0.899-0.971 2.007-0.971 3.2s0.363 2.301 0.984 3.22l-0.013-0.020c12.16 15.68 24.32 32 35.84 47.36 6.487 8.813 10.382 19.882 10.382 31.861 0 14.765-5.917 28.148-15.509 37.907l-63.992 63.992c-9.751 9.585-23.134 15.502-37.899 15.502-11.979 0-23.048-3.895-32.010-10.487l0.15 0.105c-15.68-11.52-32-23.68-47.36-35.84-0.899-0.608-2.007-0.971-3.2-0.971s-2.301 0.363-3.22 0.984l0.020-0.013c-27.592 15.893-59.503 29.235-93.143 38.379l-2.857 0.661c-2.296 0.672-3.977 2.678-4.159 5.101l-0.001 0.019c-2.56 19.52-5.44 39.36-8.32 58.56-4.395 25.484-26.132 44.691-52.435 45.119l-0.045 0.001h-91.52c-26.85-0.021-49.093-19.723-53.082-45.459l-0.038-0.301c-2.88-19.2-5.76-39.040-8.32-58.56-0.183-2.442-1.864-4.448-4.119-5.11l-0.041-0.010c-36.497-9.805-68.408-23.147-97.992-40.091l1.992 1.051c-0.899-0.608-2.007-0.971-3.2-0.971s-2.301 0.363-3.22 0.984l0.020-0.013c-15.68 12.16-32 24.32-47.36 35.84-8.813 6.487-19.882 10.382-31.861 10.382-14.765 0-28.148-5.917-37.907-15.509l-63.992-63.992c-9.585-9.751-15.502-23.134-15.502-37.899 0-11.979 3.895-23.048 10.487-32.010l-0.105 0.15c11.52-15.68 23.68-32 35.84-47.36 0.608-0.899 0.971-2.007 0.971-3.2s-0.363-2.301-0.984-3.22l0.013 0.020c-15.893-27.592-29.235-59.503-38.379-93.143l-0.661-2.857c-0.672-2.296-2.678-3.977-5.101-4.159l-0.019-0.001-58.56-8.32c-25.484-4.395-44.691-26.132-45.119-52.435l-0.001-0.045v-91.52c0.162-26.799 19.791-48.965 45.451-53.079l0.309-0.041 58.56-8.32c2.442-0.183 4.448-1.864 5.11-4.119l0.010-0.041c9.805-36.497 23.147-68.408 40.091-97.992l-1.051 1.992c0.608-0.899 0.971-2.007 0.971-3.2s-0.363-2.301-0.984-3.22l0.013 0.020c-12.16-15.68-24.32-32-35.84-47.36-6.487-8.813-10.382-19.882-10.382-31.861 0-14.765 5.917-28.148 15.509-37.907l63.992-63.992c9.751-9.585 23.134-15.502 37.899-15.502 11.979 0 23.048 3.895 32.010 10.487l-0.15-0.105c15.68 11.52 32 23.68 47.36 35.84 0.899 0.608 2.007 0.971 3.2 0.971s2.301-0.363 3.22-0.984l-0.020 0.013c27.592-15.893 59.503-29.235 93.143-38.379l2.857-0.661c2.296-0.672 3.977-2.678 4.159-5.101l0.001-0.019c2.56-19.52 5.44-39.36 8.32-58.56 4.273-25.55 26.082-44.825 52.449-45.12h91.551c26.799 0.162 48.965 19.791 53.079 45.451l0.041 0.309c2.88 19.2 5.76 39.040 8.32 58.56 0.183 2.442 1.864 4.448 4.119 5.11l0.041 0.010c36.497 9.805 68.408 23.147 97.992 40.091l-1.992-1.051c0.899 0.608 2.007 0.971 3.2 0.971s2.301-0.363 3.22-0.984l-0.020 0.013c15.68-12.16 32-24.32 47.36-35.84 8.758-6.525 19.791-10.446 31.739-10.446 14.873 0 28.327 6.076 38.015 15.881l64.005 64.005c9.585 9.751 15.502 23.134 15.502 37.899 0 11.979-3.895 23.048-10.487 32.010l0.105-0.15c-11.52 15.68-23.68 32-35.84 47.36-0.608 0.899-0.971 2.007-0.971 3.2s0.363 2.301 0.984 3.22l-0.013-0.020c15.824 27.581 29.162 59.486 38.363 93.1l0.677 2.9c0.672 2.296 2.678 3.977 5.101 4.159l0.019 0.001 58.56 8.32c25.38 4.374 44.532 25.946 45.119 52.099l0.001 0.061v91.52c-0.021 26.85-19.723 49.093-45.459 53.082l-0.301 0.038zM976.32 402.24c0-0.011 0-0.023 0-0.036 0-2.956-2.226-5.391-5.093-5.722l-0.027-0.002-57.92-8.32c-21.616-2.715-39.024-18.079-44.71-38.346l-0.090-0.374c-8.867-31.918-20.66-59.763-35.508-85.631l0.948 1.791c-4.417-7.608-7.024-16.742-7.024-26.485 0-12.379 4.209-23.775 11.274-32.835l-0.089 0.119 35.2-46.4c0.799-1.056 1.28-2.392 1.28-3.84s-0.481-2.784-1.292-3.856l0.012 0.016-64-64c-1.056-0.799-2.392-1.28-3.84-1.28s-2.784 0.481-3.856 1.292l0.016-0.012-46.72 35.2c-8.941 6.976-20.337 11.184-32.715 11.184-9.743 0-18.876-2.607-26.741-7.162l0.257 0.137c-24.077-13.9-51.922-25.693-81.251-33.938l-2.589-0.622c-20.641-5.776-36.005-23.184-38.693-44.539l-0.027-0.261c-2.56-19.52-5.44-39.040-8.32-57.92-0.333-2.894-2.769-5.12-5.724-5.12-0.013 0-0.025 0-0.038 0h-92.798c-0.011 0-0.023 0-0.036 0-2.956 0-5.391 2.226-5.722 5.093l-0.002 0.027c-2.88 18.88-5.76 38.4-8.32 57.92-2.715 21.616-18.079 39.024-38.346 44.71l-0.374 0.090c-31.918 8.867-59.763 20.66-85.631 35.508l1.791-0.948c-7.503 4.426-16.531 7.040-26.17 7.040-0.025 0-0.049 0-0.074 0h0.004c-12.122-0.223-23.227-4.401-32.124-11.292l0.124 0.092-47.36-36.8c-1.056-0.799-2.392-1.28-3.84-1.28s-2.784 0.481-3.856 1.292l0.016-0.012-64 64c-0.799 1.056-1.28 2.392-1.28 3.84s0.481 2.784 1.292 3.856l-0.012-0.016 35.2 46.72c6.976 8.941 11.184 20.337 11.184 32.715 0 9.743-2.607 18.876-7.162 26.741l0.137-0.257c-13.9 24.077-25.693 51.922-33.938 81.251l-0.622 2.589c-5.776 20.641-23.184 36.005-44.539 38.693l-0.261 0.027-57.92 8.32c-2.894 0.333-5.12 2.769-5.12 5.724 0 0.013 0 0.025 0 0.038v-0.002 92.8c0 0.011 0 0.023 0 0.036 0 2.956 2.226 5.391 5.093 5.722l0.027 0.002 57.92 8.32c21.616 2.715 39.024 18.079 44.71 38.346l0.090 0.374c8.32 31.883 19.595 59.768 33.919 85.736l-0.959-1.896c4.417 7.608 7.024 16.742 7.024 26.485 0 12.379-4.209 23.775-11.274 32.835l0.089-0.119-35.2 46.4c-0.799 1.056-1.28 2.392-1.28 3.84s0.481 2.784 1.292 3.856l-0.012-0.016 64 64c1.056 0.799 2.392 1.28 3.84 1.28s2.784-0.481 3.856-1.292l-0.016 0.012 46.72-35.2c8.894-7.053 20.28-11.314 32.661-11.314 9.777 0 18.933 2.657 26.785 7.289l-0.246-0.134c24.077 13.9 51.922 25.693 81.251 33.938l2.589 0.622c20.641 5.776 36.005 23.184 38.693 44.539l0.027 0.261c2.56 19.52 5.44 39.040 8.32 57.92 0.333 2.894 2.769 5.12 5.724 5.12 0.013 0 0.025 0 0.038 0h91.518c0.011 0 0.023 0 0.036 0 2.956 0 5.391-2.226 5.722-5.093l0.002-0.027c2.88-18.88 5.76-38.4 8.32-57.92 2.715-21.616 18.079-39.024 38.346-44.71l0.374-0.090c32.338-8.205 60.668-19.494 87.037-33.921l-1.917 0.961c7.606-4.497 16.762-7.154 26.539-7.154 12.381 0 23.767 4.262 32.771 11.398l-0.11-0.084 46.4 35.2c1.056 0.799 2.392 1.28 3.84 1.28s2.784-0.481 3.856-1.292l-0.016 0.012 64-64c0.799-1.056 1.28-2.392 1.28-3.84s-0.481-2.784-1.292-3.856l0.012 0.016-35.2-46.72c-6.976-8.941-11.184-20.337-11.184-32.715 0-9.743 2.607-18.876 7.162-26.741l-0.137 0.257c13.9-24.077 25.693-51.922 33.938-81.251l0.622-2.589c5.776-20.641 23.184-36.005 44.539-38.693l0.261-0.027 57.92-8.32c2.894-0.333 5.12-2.769 5.12-5.724 0-0.013 0-0.025 0-0.038v0.002-91.52zM512 670.4c-123.712 0-224-100.288-224-224s100.288-224 224-224c123.712 0 224 100.288 224 224v0c0 123.712-100.288 224-224 224v0zM512 273.6c-96.318 0-174.4 78.082-174.4 174.4s78.082 174.4 174.4 174.4c96.318 0 174.4-78.082 174.4-174.4v0c0-96.318-78.082-174.4-174.4-174.4v0z" />
<glyph unicode="&#xe022;" glyph-name="img-upload" data-tags="img-upload" horiz-adv-x="769" d="M368.576 898.784v-353.833h32.050v353.833l108.65-108.65 22.756 22.435-147.43 147.43-147.43-147.43 22.756-22.435 108.65 108.65zM480.751 703.599v-32.050h256.401v-681.705l-256.401 256.401-144.225-144.225-96.15 96.15-208.326-208.326v681.705h256.401v32.050h-288.451v-769.202h769.202v769.202zM202.556-33.552h-147.11l184.929 186.531 73.395-73.395zM247.747-33.552l233.004 234.607 233.004-234.607zM96.15 318.998c0-35.402 28.699-64.1 64.1-64.1s64.1 28.699 64.1 64.1c0 35.402-28.699 64.1-64.1 64.1v0c-35.402 0-64.1-28.699-64.1-64.1v0zM192.3 318.998c0-17.701-14.349-32.050-32.050-32.050s-32.050 14.349-32.050 32.050c0 17.701 14.349 32.050 32.050 32.050v0c17.701 0 32.050-14.349 32.050-32.050v0z" />
<glyph unicode="&#xe023;" glyph-name="pdf-submission" data-tags="pdf-submission" horiz-adv-x="768" d="M768-64h-768v1024h502.72l265.28-265.28zM32-32h704v713.28l-246.72 246.72h-457.28zM752 672h-272v272h32v-240h240v-32zM165.76 131.2c-0.077 0-0.167-0.001-0.258-0.001-10.654 0-20.7 2.603-29.537 7.209l0.354-0.168c-13.804 6.219-23.427 19.487-24.315 35.092l-0.005 0.108c0 21.76 18.24 43.2 55.040 64 30.294 17.636 66.497 35.451 103.935 50.878l6.145 2.242c24.208 40.097 45.369 86.382 61.083 135.113l1.317 4.727c-6.4 10.88-11.84 21.12-16.32 29.76-13.238 25.996-20.995 56.694-20.995 89.202 0 22.459 3.702 44.054 10.529 64.207l-0.414-1.409c5.088 11.603 15.236 20.172 27.574 22.989l0.266 0.051c1.906 0.221 4.115 0.348 6.354 0.348 25.057 0 46.419-15.824 54.636-38.024l0.131-0.403c1.915-3.984 3.034-8.661 3.034-13.6s-1.119-9.616-3.117-13.793l0.083 0.193c-5.752-50.806-15.313-96.7-28.649-140.957l1.449 5.597c22.613-36.16 47.106-67.572 74.458-96.23l-0.218 0.23c20.706 4.056 44.516 6.377 68.867 6.377 28.321 0 55.91-3.139 82.436-9.089l-2.503 0.472c22.407-8.879 37.965-30.363 37.965-55.48 0-4.148-0.424-8.197-1.232-12.105l0.067 0.385c-3.84-13.76-19.84-43.84-88.64-28.8-42.429 12.145-78.722 34.357-107.464 63.942l-0.056 0.058c-52.641-9.695-99.019-23.217-143.329-40.824l5.089 1.784c-28.539-48.355-63.225-89.563-103.666-124.252l-0.654-0.548c-8.216-5.777-18.419-9.245-29.431-9.28h-0.009zM244.8 241.28c-20.16-9.6-40.96-20.16-62.080-32-32-17.28-38.72-30.4-38.72-35.52s5.12-6.080 6.72-7.040c3.749-1.805 8.151-2.859 12.8-2.859s9.051 1.055 12.981 2.937l-0.181-0.078c25.724 21.971 48.264 46.44 67.643 73.339l0.837 1.221zM480 309.76c20.224-17.419 44.566-30.668 71.331-38.090l1.309-0.31c28.48-6.4 48.32-3.84 50.88 5.76 0.076 0.786 0.12 1.699 0.12 2.622 0 11.289-6.495 21.061-15.953 25.783l-0.167 0.075c-19.668 4.487-42.254 7.059-65.441 7.059-14.842 0-29.437-1.054-43.716-3.090l1.637 0.191zM362.24 394.88c-12.325-34.65-25.062-63.479-39.601-91.216l1.841 3.856c22.985 8.244 52.136 16.513 81.933 23.059l5.107 0.941c-17.172 18.968-33.472 39.638-48.321 61.377l-1.279 1.983zM348.8 603.52h-3.2c-2.199-1.318-3.878-3.308-4.774-5.683l-0.026-0.077c-4.211-14.167-6.635-30.444-6.635-47.288 0-27.77 6.587-54.002 18.285-77.218l-0.45 0.986c7.504 28.229 14.022 62.783 18.202 98.053l0.358 3.707v7.68c-2.458 5.276-5.8 9.745-9.882 13.406l-0.038 0.034c-3.164 3.292-7.343 5.587-12.032 6.382l-0.128 0.018z" />
<glyph unicode="&#xe024;" glyph-name="star" data-tags="star" d="M512 800l117.12-239.040 16.64-2.24 245.12-35.84-189.76-182.72 2.88-16.64 41.92-244.16-219.2 115.2-14.72 9.28-14.72-8-219.52-115.2 45.12 260.8-12.8 10.56-177.28 172.8 261.76 38.080 7.36 15.040 110.080 222.080zM512 872.32l-138.24-280.32-309.76-43.52 224-218.24-53.12-308.16 277.12 145.6 276.8-145.6-52.8 308.16 224 218.24-309.12 45.12-138.88 280.32z" />
<glyph unicode="&#xe025;" glyph-name="likert" data-tags="likert" d="M672 896h-608v-896h896v896zM640 864v-256h-256v256zM640 576v-256h-256v256zM96 864h256v-256h-256zM96 576h256v-256h-256zM96 32v256h256v-256zM384 32v256h256v-256zM928 32h-256v256h256zM928 320h-256v256h256zM672 608v256h256v-256z" />
<glyph unicode="&#xe026;" glyph-name="scale-rating" data-tags="scale-rating" d="M768 832v-736h-128v480h-256v-480h-128v224h-256v-256h1024v768zM32 96v192h192v-192zM416 96v448h192v-448zM800 96v704h192v-704z" />
<glyph unicode="&#xe027;" glyph-name="geo-map" data-tags="geo-map" d="M858.88 729.6c-19.402 95.656-102.81 166.645-202.798 166.645-98.61 0-181.093-69.045-201.743-161.428l-0.259-1.378-86.080 34.56-304-115.2v-652.8l304 115.2 288-115.2 304 115.2v652.8zM352 143.36l-256-96v583.36l256 96zM640 40.96l-256 102.4v583.68l64-25.92c-0.156-2.82-0.245-6.119-0.245-9.44s0.089-6.62 0.265-9.897l-0.020 0.457c0-97.92 143.36-261.12 192-313.28zM640 416c-64 73.6-160 195.84-160 265.6-0.076 0.958-0.12 2.074-0.12 3.2s0.043 2.242 0.129 3.346l-0.009-0.146c0.386 11.56 1.765 22.56 4.060 33.22l-0.22-1.22c16.187 81.292 86.956 141.709 171.837 141.709 86.139 0 157.746-62.221 172.327-144.171l0.156-1.058c1.665-9.551 3.032-21.314 3.789-33.242l0.051-0.998c0-69.76-96-192-160-265.6l-16-17.92zM928 136.64l-256-96v328.32c48.64 52.16 192 215.36 192 313.28 0 5.12 0 9.92 0 14.72l64 24.64zM752 688c0 53.019-42.981 96-96 96s-96-42.981-96-96c0-53.019 42.981-96 96-96v0c53.019 0 96 42.981 96 96v0zM656 624c-35.346 0-64 28.654-64 64s28.654 64 64 64c35.346 0 64-28.654 64-64v0c0-35.346-28.654-64-64-64v0z" />
<glyph unicode="&#xe028;" glyph-name="e-signature" data-tags="e-signature" d="M603.2 219.2c-2.809 2.988-6.787 4.849-11.2 4.849s-8.391-1.861-11.193-4.841l-0.007-0.008c-7.36-7.040-12.48-6.080-36.48 12.8-12.503 12.881-29.22 21.61-47.922 23.959l-0.398 0.041c-23.187-3.744-43.769-12.788-61.154-25.854l0.354 0.254c-5.76-3.52-13.12-8.32-19.2-11.52 0 75.2-2.24 133.12-48 133.12-40 0-46.4-42.88-52.16-80.64-4.16-29.12-9.28-62.080-27.2-73.92-7.388-3.935-16.157-6.245-25.465-6.245-6.468 0-12.675 1.116-18.439 3.165l0.385-0.119c-37.76 12.8-58.88 32-64 57.6-15.36 65.92 69.12 167.36 103.040 200.64 3.004 2.923 4.867 7.004 4.867 11.52 0 8.874-7.193 16.067-16.067 16.067-4.357 0-8.309-1.734-11.204-4.551l0.004 0.004c-5.44-5.44-134.4-134.080-112-230.72 12.463-40.819 45.416-71.753 86.57-81.129l0.79-0.151c9.567-2.44 20.549-3.84 31.859-3.84 0.050 0 0.099 0 0.149 0h-0.008c0.619-0.019 1.347-0.030 2.078-0.030 14.057 0 27.165 4.065 38.212 11.083l-0.29-0.172c29.76 20.16 35.84 60.48 40.96 96s6.4 53.44 17.92 53.44 16-64 16-112c-0.049-0.568-0.077-1.23-0.077-1.898 0-8.567 4.612-16.057 11.489-20.123l0.109-0.059c14.72-8.32 32 2.24 56.32 16.96 12.584 9.246 27.308 16.493 43.213 20.896l0.947 0.224c11.185-3.391 20.762-9.246 28.48-16.96v0c18.56-14.72 49.6-39.68 78.72-10.24 2.988 2.809 4.849 6.787 4.849 11.2s-1.861 8.391-4.841 11.193l-0.008 0.007zM603.2 219.2c-2.809 2.988-6.787 4.849-11.2 4.849s-8.391-1.861-11.193-4.841l-0.007-0.008c-7.36-7.040-12.48-6.080-36.48 12.8-12.503 12.881-29.22 21.61-47.922 23.959l-0.398 0.041c-23.187-3.744-43.769-12.788-61.154-25.854l0.354 0.254c-5.76-3.52-13.12-8.32-19.2-11.52 0 75.2-2.24 133.12-48 133.12-40 0-46.4-42.88-52.16-80.64-4.16-29.12-9.28-62.080-27.2-73.92-7.388-3.935-16.157-6.245-25.465-6.245-6.468 0-12.675 1.116-18.439 3.165l0.385-0.119c-37.76 12.8-58.88 32-64 57.6-15.36 65.92 69.12 167.36 103.040 200.64 3.004 2.923 4.867 7.004 4.867 11.52 0 8.874-7.193 16.067-16.067 16.067-4.357 0-8.309-1.734-11.204-4.551l0.004 0.004c-5.44-5.44-134.4-134.080-112-230.72 12.463-40.819 45.416-71.753 86.57-81.129l0.79-0.151c9.567-2.44 20.549-3.84 31.859-3.84 0.050 0 0.099 0 0.149 0h-0.008c0.619-0.019 1.347-0.030 2.078-0.030 14.057 0 27.165 4.065 38.212 11.083l-0.29-0.172c29.76 20.16 35.84 60.48 40.96 96s6.4 53.44 17.92 53.44 16-64 16-112c-0.049-0.568-0.077-1.23-0.077-1.898 0-8.567 4.612-16.057 11.489-20.123l0.109-0.059c14.72-8.32 32 2.24 56.32 16.96 12.584 9.246 27.308 16.493 43.213 20.896l0.947 0.224c11.185-3.391 20.762-9.246 28.48-16.96v0c18.56-14.72 49.6-39.68 78.72-10.24 2.988 2.809 4.849 6.787 4.849 11.2s-1.861 8.391-4.841 11.193l-0.008 0.007zM945.6 821.76c-9.115 5.554-20.14 8.842-31.932 8.842-22.679 0-42.518-12.161-53.351-30.318l-0.157-0.284-54.72-96h-741.44v-640h896v640h-10.24l18.56 32c5.062 8.953 8.045 19.661 8.045 31.066 0 23.060-12.195 43.271-30.489 54.536l-0.277 0.159zM817.6 661.76l53.12-32-154.56-267.52-52.8 30.4zM928 96h-832v576h690.88l-165.76-288v-3.2l-9.28-104.32c-0.062-0.576-0.098-1.245-0.098-1.921 0-10.349 8.327-18.753 18.646-18.879h0.012c4.079 0.087 7.837 1.391 10.944 3.563l-0.064-0.043 85.44 60.8 2.88 2.24 168.64 292.48 29.76 51.84zM940.8 752.32l-27.84-48.32-16.96-32-6.72-11.52-21.76 11.52-32 18.88 6.72 13.12 45.76 79.040c5.522 8.975 15.141 14.965 26.184 15.358l0.056 0.002c5.659-0.077 10.943-1.611 15.515-4.242l-0.155 0.082c6.773-4.195 11.793-10.67 14.024-18.334l0.056-0.226c0.652-2.412 1.026-5.182 1.026-8.039 0-5.617-1.447-10.897-3.99-15.485l0.083 0.164zM580.8 219.2c-7.36-7.040-12.48-6.080-36.48 12.8-12.503 12.881-29.22 21.61-47.922 23.959l-0.398 0.041c-23.187-3.744-43.769-12.788-61.154-25.854l0.354 0.254c-5.76-3.52-13.12-8.32-19.2-11.52 0 75.2-2.24 133.12-48 133.12-40 0-46.4-42.88-52.16-80.64-4.16-29.12-9.28-62.080-27.2-73.92-7.388-3.935-16.157-6.245-25.465-6.245-6.468 0-12.675 1.116-18.439 3.165l0.385-0.119c-37.76 12.8-58.88 32-64 57.6-15.36 65.92 69.12 167.36 103.040 200.64 3.004 2.923 4.867 7.004 4.867 11.52 0 8.874-7.193 16.067-16.067 16.067-4.357 0-8.309-1.734-11.204-4.551l0.004 0.004c-5.44-5.44-134.4-134.080-112-230.72 12.463-40.819 45.416-71.753 86.57-81.129l0.79-0.151c9.567-2.44 20.549-3.84 31.859-3.84 0.050 0 0.099 0 0.149 0h-0.008c0.619-0.019 1.347-0.030 2.078-0.030 14.057 0 27.165 4.065 38.212 11.083l-0.29-0.172c29.76 20.16 35.84 60.48 40.96 96s6.4 53.44 17.92 53.44 16-64 16-112c-0.049-0.568-0.077-1.23-0.077-1.898 0-8.567 4.612-16.057 11.489-20.123l0.109-0.059c14.72-8.32 32 2.24 56.32 16.96 12.584 9.246 27.308 16.493 43.213 20.896l0.947 0.224c11.185-3.391 20.762-9.246 28.48-16.96v0c18.56-14.72 49.6-39.68 78.72-10.24 2.866 2.866 4.639 6.826 4.639 11.2 0 8.748-7.091 15.839-15.839 15.839-4.374 0-8.334-1.773-11.2-4.639v0z" />
<glyph unicode="&#xe029;" glyph-name="collection" data-tags="collection" d="M896 640v256h-768v-96h-64v-800h896v640zM352 864h512v-224h-192v160h-320zM256 864h64v-64h-64zM160 864h64v-64h-64zM928 32h-832v416h832zM672 480h-576v288h544v-160h288v-128z" />
<glyph unicode="&#xe02a;" glyph-name="decision-box" data-tags="decision-box" d="M800 840.64l22.4 22.4 57.6-56.32 56.64 57.28 22.4-22.4-56.32-57.6 57.28-56.64-22.4-22.4-57.6 56.32-56.64-57.28-22.4 22.4 56.32 57.6zM640 672h32v-64h-32zM640 544h32v-64h-32zM640 288h32v-64h-32zM320 480c53.019 0 96 42.981 96 96s-42.981 96-96 96c-53.019 0-96-42.981-96-96v0c0-53.019 42.981-96 96-96v0zM541.76 224c-16.023 109.372-109.195 192.401-221.76 192.401s-205.737-83.029-221.613-191.185l-0.147-1.216zM64 192c0 141.385 114.615 256 256 256v0c-70.692 0-128 57.308-128 128s57.308 128 128 128c70.692 0 128-57.308 128-128v0c0-70.692-57.308-128-128-128v0c141.385 0 256-114.615 256-256v0zM704 96h-64v64h32v-32h32zM704 384h-32v-32h-32v64h64zM704 768h-32v-32h-32v64h64zM960 55.36l-22.4-22.4-57.6 56.32-56.64-57.28-22.4 22.4 56.32 56.64-57.28 57.6 22.4 22.4 56.64-56.32 57.6 57.28 22.4-22.4-56.32-57.6zM832 334.72l-70.4 70.080 22.4 22.4 48-47.36 106.24 106.24 22.4-22.72z" />
<glyph unicode="&#xe02b;" glyph-name="range-slider" data-tags="range-slider" d="M928 480h-355.2c-15.344 73.633-79.704 128.16-156.8 128.16s-141.456-54.527-156.618-127.12l-0.182-1.040h-163.2c-17.673 0-32-14.327-32-32s14.327-32 32-32v0h163.2c15.344-73.633 79.704-128.16 156.8-128.16s141.456 54.527 156.618 127.12l0.182 1.040h355.2c17.673 0 32 14.327 32 32s-14.327 32-32 32v0zM416 320c-59.282 0.046-109.129 40.384-123.639 95.107l-0.201 0.893c-2.643 9.6-4.161 20.623-4.161 32s1.519 22.4 4.364 32.877l-0.203-0.877c14.848 55.461 64.653 95.633 123.84 95.633s108.992-40.172 123.636-94.738l0.204-0.895c2.643-9.6 4.161-20.623 4.161-32s-1.519-22.4-4.364-32.877l0.203 0.877c-14.711-55.616-64.558-95.954-123.835-96h-0.005z" />
<glyph unicode="&#xe02c;" glyph-name="privacy-policy" data-tags="privacy-policy" d="M384 583.36c-0.001 0.096-0.002 0.209-0.002 0.322 0 13.432 10.888 24.32 24.32 24.32 0.113 0 0.226-0.001 0.339-0.002h39.343c0.064 0 0.139 0 0.214 0 32.796 0 60.964 19.814 73.187 48.123l0.199 0.517c4.315 8.124 12.722 13.562 22.4 13.562s18.085-5.438 22.334-13.425l0.066-0.137c12.422-28.827 40.59-48.64 73.386-48.64 0.075 0 0.151 0 0.226 0h39.348c0.096 0.001 0.209 0.002 0.322 0.002 13.432 0 24.32-10.888 24.32-24.32 0-0.113-0.001-0.226-0.002-0.339v0.017-190.080c0.002-0.215 0.003-0.469 0.003-0.723 0-29.21-13.403-55.289-34.394-72.424l-0.168-0.133-110.080-89.28c-4.252-3.729-9.86-6.004-16-6.004s-11.748 2.275-16.028 6.028l0.028-0.024-108.8 89.28c-21.16 17.268-34.563 43.347-34.563 72.557 0 0.254 0.001 0.508 0.003 0.762v-0.039zM672 393.28v182.72h-32c-0.041 0-0.090 0-0.139 0-40.453 0-75.897 21.447-95.582 53.591l-0.279 0.489c-19.963-32.633-55.407-54.080-95.861-54.080-0.049 0-0.098 0-0.147 0h-31.992v-182.72c0.149-19.036 9.070-35.959 22.915-46.944l0.125-0.096 104.96-85.44 104.96 85.44c13.97 11.081 22.891 28.004 23.040 47.015v0.025zM224 800c0 35.346-28.654 64-64 64s-64-28.654-64-64v0-128h128zM832 752c0 61.856-50.144 112-112 112v0h-480c9.929-13.23 15.926-29.907 16-47.983v-672.017c0-61.856 50.144-112 112-112s112 50.144 112 112v0 16h352zM512 128c-4.48-38.939-23.868-72.649-52.22-95.794l-0.26-0.206h356.48c0.341-0.004 0.744-0.006 1.148-0.006 56.213 0 102.754 41.413 110.777 95.393l0.075 0.612zM960 144c-0.182-79.456-64.544-143.818-143.983-144h-448.017c-79.456 0.182-143.818 64.544-144 143.983v496.017h-160v160c0 53.019 42.981 96 96 96v0h560c79.456-0.182 143.818-64.544 144-143.983v-592.017h96z" />
<glyph unicode="&#xe02d;" glyph-name="logs" data-tags="logs" d="M853.333 106.667h-682.667v682.667h682.667zM192 128h640v640h-640zM341.333 458.667h341.333v-21.333h-341.333v21.333zM341.333 245.333h341.333v-21.333h-341.333v21.333zM341.333 352h170.667v-21.333h-170.667v21.333zM192 576h661.333v-21.333h-661.333v21.333zM266.667 738.133h32v-106.667h57.6v-25.6h-89.6zM501.333 674.133c0.102-1.374 0.16-2.977 0.16-4.593 0-36.524-29.609-66.133-66.133-66.133-2.31 0-4.593 0.118-6.842 0.35l0.282-0.023c-1.322-0.097-2.864-0.153-4.419-0.153-35.346 0-64 28.654-64 64 0 1.555 0.055 3.097 0.165 4.625l-0.012-0.205c0 0.040 0 0.087 0 0.133 0 37.703 30.564 68.267 68.267 68.267 1.501 0 2.991-0.048 4.468-0.144l-0.201 0.010c1.288 0.092 2.792 0.145 4.307 0.145 35.346 0 64-28.654 64-64 0-0.801-0.015-1.599-0.044-2.393l0.003 0.115zM396.8 672c0-25.6 12.8-44.8 34.133-44.8s36.267 19.2 36.267 44.8-12.8 44.8-36.267 44.8-34.133-19.2-34.133-44.8zM644.267 612.267c-14.588-5.406-31.439-8.533-49.020-8.533-0.016 0-0.033 0-0.049 0h0.002c-1.724-0.134-3.732-0.21-5.759-0.21-19.885 0-38.054 7.353-51.933 19.489l0.092-0.079c-13.089 10.244-21.422 26.044-21.422 43.79 0 1.106 0.032 2.204 0.096 3.294l-0.007-0.15c0 44.8 36.267 70.4 83.2 70.4 14.537-0.22 28.451-2.544 41.561-6.68l-1.028 0.28-6.4-25.6c-8.953 4.1-19.422 6.491-30.45 6.491-1.296 0-2.584-0.033-3.863-0.098l0.179 0.007c-1.924 0.307-4.143 0.483-6.403 0.483-23.564 0-42.667-19.103-42.667-42.667 0-0.17 0.001-0.34 0.003-0.509v0.026c-0.055-0.794-0.087-1.721-0.087-2.656 0-22.386 18.147-40.533 40.533-40.533 2.291 0 4.537 0.19 6.724 0.555l-0.237-0.033h14.933v29.867h-21.333v23.467h53.333zM672 635.733c10.732-3.54 23.13-5.84 35.981-6.39l0.286-0.010c14.933 0 21.333 4.267 21.333 12.8s-6.4 12.8-23.467 19.2-40.533 19.2-40.533 38.4 21.333 40.533 55.467 40.533c1.117 0.047 2.428 0.073 3.746 0.073 12.466 0 24.377-2.376 35.305-6.7l-0.65 0.227-8.533-23.467c-8.795 3.88-19.034 6.217-29.799 6.399l-0.068 0.001c-14.933 0-21.333-6.4-21.333-12.8s8.533-12.8 27.733-19.2 36.267-21.333 36.267-40.533-19.2-40.533-57.6-40.533c-0.254-0.002-0.554-0.003-0.854-0.003-15.106 0-29.479 3.14-42.501 8.804l0.689-0.267z" />
<glyph unicode="&#xe02e;" glyph-name="import" data-tags="import" d="M921.6 2.133h-819.2v616.533h87.467v-21.333h-66.133v-573.867h776.533v573.867h-66.133v21.333h87.467v-616.533zM501.333 774.4h21.333v-515.84h-21.333v515.84zM614.4 761.6l-102.4 100.267-102.4-100.267-14.933 14.933 117.333 117.333 117.333-117.333-14.933-14.933z" />
<glyph unicode="&#xe02f;" glyph-name="export" data-tags="export" d="M921.6 4.267h-819.2v616.533h87.467v-21.333h-66.133v-573.867h776.533v573.867h-66.133v21.333h87.467v-616.533zM501.333 878.933h21.333v-515.84h-21.333v515.84zM512 245.333l-117.333 117.333 14.933 14.933 102.4-102.4 102.4 102.4 14.933-14.933-117.333-117.333z" />
</font>
</defs>
</svg>
