<?xml version="1.0" encoding="utf-8"?>
<!-- Generator: Adobe Illustrator 22.1.0, SVG Export Plug-In . SVG Version: 6.00 Build 0)  -->
<svg version="1.1" id="Layer_1" xmlns="http://www.w3.org/2000/svg" xmlns:xlink="http://www.w3.org/1999/xlink" x="0px" y="0px"
	 viewBox="0 0 128 128" style="enable-background:new 0 0 128 128;" xml:space="preserve">
<style type="text/css">
	.st0{fill:#7E3BD0;}
	.st1{fill:#FFFFFF;}
</style>
<title>everest-forms-logo</title>
<path class="st0" d="M7,0h114c3.9,0,7,3.1,7,7v114c0,3.9-3.1,7-7,7H7c-3.9,0-7-3.1-7-7V7C0,3.1,3.1,0,7,0z"/>
<polygon class="st1" points="88.6,32 73.1,32 77.9,40 93.5,40 "/>
<polygon class="st1" points="98.4,48 82.8,48 87.8,56 103.3,56 "/>
<polygon class="st1" points="98.2,88 96,88 88.8,88 39.2,88 64,47.6 74.1,64 72,64 64,64 59.1,72 64,72 67.1,72 88.4,72 64,32.4 
	24.8,96 32,96 96,96 103.2,96 "/>
</svg>
