<svg xmlns="http://www.w3.org/2000/svg" fill="#000" viewBox="0 0 24 24">
  <path d="M19.865 10.862s1.45-2.52-.041-4.725c0 0-1.492-2.647-5.063-1.807 0 0-1.176-2.583-4.2-2.31 0 0-2.815-.148-3.928 3.381 0 0-3.843 0-4.537 3.592 0 0-.63 1.911 1.344 4.054 0 0-1.807 3.046.652 5.502 0 0 1.543 1.806 4.289 1.072 0 0 1.655 2.415 3.924 2.372 0 0 3.148.316 4.368-3.402 0 0 3.256-.23 3.927-2.102.001.001 1.891-2.707-.735-5.627Zm-4.94-5.3c.676-.194 2.48-.516 3.722 1.078 0 0 1.366 1.344.211 3.57l-4.936-2.897-3.929 2.436V8.362L14.49 5.75c.138-.08.283-.143.435-.186Zm-3.271 4.628 1.538.885.005 1.794-1.55.898-1.55-.904.009-1.782 1.548-.89ZM7.705 6.388c.399-3.234 3.108-3.15 3.108-3.15 1.691-.025 2.856 1.555 2.856 1.555l-4.914 2.96.084 4.537-1.134-.63V6.388Zm-4.24 2.167s.507-1.849 3.012-1.928L6.36 12.35l4.045 2.237-1.21.679-4.642-2.745c.002 0-2.068-1.634-1.088-3.965Zm5.012 9.77s-2.47.924-3.955-1.125c0 0-1.32-1.39-.09-3.575l4.835 3.064 4.01-2.3-.047 1.385-4.753 2.55Zm4.419 2.446s-1.841.533-3.217-1.565l4.944-2.884-.202-4.618 1.209.678.08 5.393c.001 0-.313 2.618-2.814 2.996Zm6.97-5.377s-.463 1.86-2.97 1.995l-.008-5.724-4.093-2.147 1.194-.704 4.703 2.643c0-.001 2.106 1.587 1.175 3.937Z"/>
</svg>
