<svg xmlns="http://www.w3.org/2000/svg" fill="#4E4E4E" viewBox="0 0 20 20">
  <g fill-rule="evenodd" clip-path="url(#a)" clip-rule="evenodd">
    <path d="M7.054 3.72a4.167 4.167 0 0 1 7.113 2.945c0 1.546-1.06 3.218-2.29 4.603A18.776 18.776 0 0 1 10 13.094a18.769 18.769 0 0 1-1.877-1.826c-1.23-1.385-2.29-3.057-2.29-4.603 0-1.105.44-2.165 1.22-2.946ZM9.5 14.831l.5-.667-.5.667a.834.834 0 0 0 1 0l-.5-.667.5.667.002-.002.004-.003.014-.01.047-.036a18.646 18.646 0 0 0 .763-.633 20.424 20.424 0 0 0 1.793-1.773c1.27-1.428 2.71-3.505 2.71-5.71a5.834 5.834 0 0 0-11.666 0c0 2.205 1.44 4.282 2.71 5.71a20.43 20.43 0 0 0 2.556 2.406l.048.036.013.01.004.003.002.002Zm-.333-8.164a.833.833 0 1 1 1.667 0 .833.833 0 0 1-1.667 0Zm.834-2.5a2.5 2.5 0 1 0 0 5 2.5 2.5 0 0 0 0-5Z"/>
    <path d="m4.12 10.833.046-.001h3.196a.833.833 0 0 1 0 1.667H4.21l-.004.013L2.544 17.5h14.91l-1.662-4.987-.004-.013h-3.151a.833.833 0 0 1 0-1.667h3.196l.045.001a1.666 1.666 0 0 1 1.497 1.158l1.623 4.868c.17.272.168.537.168.628v.012c0 .44-.15.87-.473 1.193a1.665 1.665 0 0 1-1.194.473h-15c-.439 0-.87-.15-1.193-.473A1.665 1.665 0 0 1 .833 17.5v-.012c0-.09-.002-.356.168-.628l1.622-4.868a1.666 1.666 0 0 1 1.498-1.158Zm13.38 6.643v.005Zm-15 0v.005Z"/>
  </g>
  <defs>
    <clipPath id="a">
      <path d="M0 0h20v20H0z"/>
    </clipPath>
  </defs>
</svg>
