<svg width="20" height="20" viewBox="0 0 20 20" fill="none" xmlns="http://www.w3.org/2000/svg">
<g clip-path="url(#clip0_1128_105)">
<path fill-rule="evenodd" clip-rule="evenodd" d="M9.99967 2.49998C5.85754 2.49998 2.49967 5.85784 2.49967 9.99998C2.49967 14.1421 5.85754 17.5 9.99967 17.5C14.1418 17.5 17.4997 14.1421 17.4997 9.99998C17.4997 5.85784 14.1418 2.49998 9.99967 2.49998ZM0.833008 9.99998C0.833008 4.93737 4.93706 0.833313 9.99967 0.833313C15.0623 0.833313 19.1663 4.93737 19.1663 9.99998C19.1663 15.0626 15.0623 19.1666 9.99967 19.1666C4.93706 19.1666 0.833008 15.0626 0.833008 9.99998Z" fill="#404041"/>
<path fill-rule="evenodd" clip-rule="evenodd" d="M10.489 7.54781C10.0041 7.45158 9.5016 7.50125 9.04495 7.69055C8.58829 7.87985 8.19801 8.20028 7.92343 8.61134C7.64885 9.02241 7.5023 9.50565 7.5023 9.99998C7.5023 10.4943 7.64885 10.9776 7.92343 11.3886C8.19801 11.7997 8.58829 12.1201 9.04495 12.3094C9.5016 12.4987 10.0041 12.5484 10.489 12.4521C10.9739 12.3559 11.4193 12.1181 11.7691 11.7687C12.0947 11.4435 12.6223 11.4438 12.9476 11.7694C13.2728 12.095 13.2726 12.6226 12.9469 12.9479C12.364 13.5302 11.6216 13.9265 10.8135 14.0869C10.0053 14.2473 9.1678 14.1645 8.40671 13.849C7.64562 13.5335 6.99515 12.9995 6.53752 12.3144C6.07988 11.6293 5.83563 10.8239 5.83563 9.99998C5.83563 9.17609 6.07988 8.37069 6.53752 7.68559C6.99515 7.00048 7.64562 6.46643 8.40671 6.15093C9.1678 5.83542 10.0053 5.75264 10.8135 5.91304C11.6216 6.07343 12.364 6.46981 12.9469 7.05206C13.2726 7.37732 13.2728 7.90496 12.9476 8.23057C12.6223 8.55619 12.0947 8.55649 11.7691 8.23123C11.4193 7.88188 10.9739 7.64405 10.489 7.54781Z" fill="#404041"/>
</g>
<defs>
<clipPath id="clip0_1128_105">
<rect width="20" height="20" fill="white"/>
</clipPath>
</defs>
</svg>
