<svg xmlns="http://www.w3.org/2000/svg" fill="none" viewBox="0 0 24 24">
  <path fill="#4E4E4E" d="M8 8.001a1 1 0 1 0 0 2h2a1 1 0 0 0 0-2H8Zm-1 5a1 1 0 0 1 1-1h8a1 1 0 1 1 0 2H8a1 1 0 0 1-1-1Zm1 3a1 1 0 1 0 0 2h8a1 1 0 1 0 0-2H8Z"/>
  <path fill="#4E4E4E" fill-rule="evenodd" d="M3.879 1.88A3 3 0 0 1 6 1h9a1 1 0 0 1 .707.293l5 5A1 1 0 0 1 21 7v13a3 3 0 0 1-3 3H6a3 3 0 0 1-3-3V4a3 3 0 0 1 .879-2.121ZM6 3h7v3a3 3 0 0 0 3 3h3v11a1 1 0 0 1-1 1H6a1 1 0 0 1-1-1V4a1 1 0 0 1 1-1Zm10 4h2.586L15 3.415v2.586a1 1 0 0 0 1 1Z" clip-rule="evenodd"/>
</svg>
